<?xml version="1.0" encoding="UTF-8" standalone="no"?>
<!-- Created with Inkscape (http://www.inkscape.org/) -->

<svg
   version="1.1"
   id="svg2"
   width="426.6127"
   height="194.81863"
   viewBox="0 0 426.6127 194.81863"
   sodipodi:docname="UniprotLogo.svg"
   inkscape:version="1.2.1 (9c6d41e410, 2022-07-14)"
   xml:space="preserve"
   xmlns:inkscape="http://www.inkscape.org/namespaces/inkscape"
   xmlns:sodipodi="http://sodipodi.sourceforge.net/DTD/sodipodi-0.dtd"
   xmlns="http://www.w3.org/2000/svg"
   xmlns:svg="http://www.w3.org/2000/svg"><defs
     id="defs6" /><sodipodi:namedview
     id="namedview4"
     pagecolor="#ffffff"
     bordercolor="#999999"
     borderopacity="1"
     inkscape:showpageshadow="0"
     inkscape:pageopacity="0"
     inkscape:pagecheckerboard="0"
     inkscape:deskcolor="#d1d1d1"
     showgrid="false"
     inkscape:zoom="1.1559539"
     inkscape:cx="211.08108"
     inkscape:cy="-33.73837"
     inkscape:window-width="1920"
     inkscape:window-height="1043"
     inkscape:window-x="0"
     inkscape:window-y="0"
     inkscape:window-maximized="1"
     inkscape:current-layer="g8" /><g
     inkscape:groupmode="layer"
     inkscape:label="Image"
     id="g8"
     transform="translate(85.689365,-192.64563)"><path
       style="fill:#006f9d;fill-opacity:1;stroke-width:1.33333"
       d="m 192.87288,384.20637 c -7.2684,-4.89818 -10.56224,-10.91603 -10.56224,-19.29727 0,-13.94221 7.75216,-22.98877 20.61342,-24.05533 9.2099,-0.76375 15.62538,1.45234 20.59716,7.1149 9.6405,10.97991 7.87188,28.14698 -3.71065,36.01751 -6.68612,4.54335 -20.35676,4.65508 -26.93769,0.22019 z m 59.30585,0.49116 c -20.45575,-9.2899 -13.85804,-40.19302 8.65357,-40.53262 7.69081,-0.116 14.16871,3.30295 18.59061,9.81195 2.61388,3.8476 3.04099,5.90044 2.62718,12.62688 -0.58807,9.55853 -3.4201,14.11305 -11.16042,17.94832 -6.69924,3.31941 -11.63756,3.3578 -18.71094,0.14547 z m 41.05166,-32.16027 c -4.82514,-2.94183 -8.25309,-9.57325 -8.25309,-15.96583 0,-11.17804 7.74989,-18.6567 19.33333,-18.6567 8.23128,0 14.07624,3.31453 17.10672,9.7008 4.32335,9.11078 1.49174,20.33661 -6.33333,25.10833 -5.60409,3.41737 -16.08925,3.32784 -21.85363,-0.1866 z M 162.22464,327.57143 c -4.73614,-2.40164 -8.61371,-5.66134 -11.23908,-9.44819 -3.62168,-5.22392 -4.00826,-6.78811 -4.00826,-16.21847 0,-9.43037 0.38658,-10.99455 4.00826,-16.21848 4.68632,-6.75958 15.95701,-13.11878 23.23082,-13.10742 13.93963,0.0218 26.55062,9.64913 29.24498,22.3259 2.35737,11.0913 -0.0168,19.52475 -7.6526,27.18277 -9.83264,9.86132 -21.26899,11.72873 -33.58412,5.48389 z m 21.0968,-13.66666 c 1.22009,0 5.64674,-9.19104 5.65088,-11.73288 0.007,-4.26587 -3.47548,-10.56192 -6.83696,-12.36093 -8.99712,-4.81511 -20.43079,1.89073 -20.43079,11.98264 0,8.82538 8.84101,15.67149 17.15779,13.28627 2.25354,-0.64631 4.26012,-1.1751 4.45908,-1.1751 z m -253.677472,14.11018 c -5.259045,-2.34741 -10.691787,-8.24635 -13.262602,-14.40069 -1.610004,-3.85423 -2.070731,-10.26061 -2.070731,-28.79335 0,-21.39878 0.249334,-24.06182 2.438321,-26.04282 3.220222,-2.91427 8.60747,-2.80435 11.355028,0.23167 1.873449,2.07013 2.206651,5.90459 2.206651,25.39394 0,22.59485 0.05143,23.00704 3.272726,26.22834 4.346314,4.34631 9.980942,4.28092 14.161521,-0.16435 3.130594,-3.32881 3.245739,-4.17843 3.655266,-26.97124 0.249861,-13.90641 0.998478,-24.22776 1.829926,-25.22959 0.773894,-0.93248 3.399591,-1.69543 5.834882,-1.69543 7.684362,0 8.580081,2.85247 8.571576,27.29668 -0.0081,23.2023 -1.121319,29.65263 -6.30205,36.51512 -6.322441,8.37482 -21.718959,12.08262 -31.690514,7.63172 z m 45.539983,-0.5485 c -3.060557,-3.38188 -3.162841,-30.02551 -0.143013,-37.25298 9.470645,-22.66644 43.399117,-21.26106 49.877687,2.06604 2.23265,8.03898 1.77687,31.1491 -0.6836,34.66191 -2.23488,3.19075 -7.07859,3.86661 -11.34538,1.58311 -2.299141,-1.23047 -2.579011,-2.90393 -2.579011,-15.421 0,-17.2064 -2.5775747,-23.04419 -10.2242837,-23.15636 -8.61921,-0.12642 -11.1090503,4.9081 -11.1090503,22.46281 0,10.31705 -0.47045,13.77476 -2.095238,15.39955 -2.829056,2.82905 -8.990909,2.64834 -11.698111,-0.34308 z m 58.535624,-0.52503 c -2.71112,-3.87066 -3.00322,-43.78187 -0.35888,-49.03665 1.89848,-3.77263 9.1246,-5.28813 12.37037,-2.59438 2.54601,2.11299 2.83155,50.47572 0.3129,52.99438 -2.74446,2.74445 -10.01014,1.94072 -12.32439,-1.36335 z m 23.58535,1.42431 c -2.33216,-2.33216 -2.38908,-67.86618 -0.061,-70.1943 1.06644,-1.06643 6.92868,-1.6 17.57904,-1.6 13.55815,0 16.86415,0.42849 21.82131,2.8282 7.749105,3.75128 12.615265,11.18213 13.382665,20.43597 1.42646,17.20067 -8.88677,28.73583 -25.691775,28.73583 -6.55539,0 -7.58592,-0.37505 -8.889,-3.23501 -3.15316,-6.92043 1.51141,-12.76499 10.18783,-12.76499 3.80961,0 8.67664,-5.74421 8.67664,-10.24041 0,-1.76777 -1.47274,-4.68686 -3.27274,-6.48686 -2.75293,-2.75294 -4.55293,-3.27273 -11.33333,-3.27273 -8.0606,0 -8.0606,0 -8.08025,25 -0.0225,28.68411 -0.71176,31.44044 -8.01672,32.06096 -2.55295,0.21686 -5.38915,-0.35314 -6.30267,-1.26666 z m 55.939045,-0.061 c -1.07829,-1.0783 -1.6,-7.18218 -1.6,-18.71979 0,-20.031 1.83647,-25.32826 10.84844,-31.2921 7.14516,-4.72844 21.13068,-6.02696 25.20455,-2.34016 5.96768,5.40068 1.14212,13.95205 -7.87318,13.95205 -3.19474,0 -6.48881,1.05034 -8.66666,2.76344 -3.40443,2.67791 -3.51315,3.20517 -3.51315,17.03665 0,16.68085 -1.47655,20.19991 -8.4756,20.19991 -2.37843,0 -5.0444,-0.72 -5.9244,-1.6 z m 109.73333,-0.28982 c -5.25904,-2.34741 -10.69178,-8.24635 -13.2626,-14.40069 -2.44876,-5.86215 -2.99242,-43.49594 -0.69049,-47.79715 1.00513,-1.8781 2.80421,-2.57901 6.61976,-2.57901 5.55188,0 8,2.4213 8,7.91235 0,2.47381 0.80504,2.75432 7.90476,2.75432 8.97956,0 12.09524,2.03207 12.09524,7.88859 0,5.70102 -3.69618,8.11141 -12.43832,8.11141 -7.56168,0 -7.56168,0 -7.56168,8.72727 0,7.48821 0.46464,9.19192 3.27273,12 2.16156,2.16156 4.777,3.27273 7.70332,3.27273 9.00899,0 13.84761,8.42799 7.91896,13.79334 -2.99129,2.7071 -13.81396,2.88239 -19.56168,0.31684 z m 91.62239,-18.85779 c -10.38291,-7.27248 -8.45454,-24.53381 3.28901,-29.44058 6.73169,-2.81268 13.16516,-1.33525 18.82309,4.32269 4.36726,4.36724 4.56046,4.95751 3.96658,12.11882 -0.52806,6.36759 -1.27571,8.11002 -4.85038,11.30399 -3.50522,3.13192 -5.42278,3.77602 -11.24172,3.77602 -4.19942,0 -8.20821,-0.83533 -9.98658,-2.08094 z M 33.453655,267.80144 c -4.62113,-7.05274 2.90137,-15.09743 10.76647,-11.51385 7.75655,3.53412 4.7712,14.95051 -3.90949,14.95051 -3.47782,0 -5.15644,-0.84131 -6.85698,-3.43666 z m 281.004615,-3.97705 c -11.49408,-9.67163 -2.27441,-28.11619 12.65419,-25.31557 10.75155,2.017 15.15119,16.9814 7.30073,24.83185 -5.28266,5.28266 -14.00054,5.494 -19.95492,0.48372 z M 192.40588,233.14286 c -1.15239,-1.15238 -2.09524,-2.90952 -2.09524,-3.90476 0,-2.10422 3.58166,-6 5.51622,-6 3.13111,0 6.48378,2.98889 6.48378,5.78025 0,5.81762 -5.79748,8.23179 -9.90476,4.12451 z m 104.42215,-1.23762 c -7.05932,-3.83666 -8.14645,-13.94832 -2.18614,-20.33381 6.11668,-6.55299 19.70528,-2.48397 21.48902,6.43476 2.23555,11.17769 -9.18258,19.39933 -19.30288,13.89905 z m -83.59865,-15.40541 c -2.57518,-1.03293 -3.01317,-2.05525 -2.66666,-6.22454 0.33674,-4.05195 1.09546,-5.2266 4.04088,-6.25609 7.2882,-2.54741 12.39789,7.38265 6.07702,11.80996 -3.35818,2.35217 -3.27724,2.34488 -7.45124,0.67067 z m 54.43848,-4.97427 c -1.99324,-1.61403 -2.9828,-3.95267 -3.07688,-7.27162 -0.18981,-6.69637 3.31373,-10.34917 9.92631,-10.34917 6.50885,0 10.46001,3.68959 10.46001,9.76758 0,8.64534 -10.46677,13.39406 -17.30944,7.85321 z m -30.42389,-4.55413 c -2.28216,-2.28216 -1.97834,-9.83118 0.49524,-12.30476 2.69472,-2.69472 9.1148,-2.69472 11.80952,0 2.47357,2.47358 2.7774,10.0226 0.49524,12.30476 -2.06996,2.06996 -10.73004,2.06996 -12.8,0 z"
       id="path185" /></g></svg>
