<?xml version="1.0" encoding="utf-8"?>
<!-- Generator: Adobe Illustrator 16.0.0, SVG Export Plug-In . SVG Version: 6.00 Build 0)  -->
<!DOCTYPE svg PUBLIC "-//W3C//DTD SVG 1.1//EN" "http://www.w3.org/Graphics/SVG/1.1/DTD/svg11.dtd">
<svg version="1.1"
	 id="Ebene_1" xmlns:sodipodi="http://sodipodi.sourceforge.net/DTD/sodipodi-0.dtd" xmlns:dc="http://purl.org/dc/elements/1.1/" xmlns:cc="http://creativecommons.org/ns#" xmlns:rdf="http://www.w3.org/1999/02/22-rdf-syntax-ns#" xmlns:svg="http://www.w3.org/2000/svg" xmlns:inkscape="http://www.inkscape.org/namespaces/inkscape" xmlns:xml="http://www.w3.org/XML/1998/namespace" inkscape:version="0.48.2 r9819" sodipodi:docname="test2.svg"
	 xmlns="http://www.w3.org/2000/svg" xmlns:xlink="http://www.w3.org/1999/xlink" x="0px" y="0px" width="390.072px"
	 height="734.533px" viewBox="0 0 390.072 734.533" enable-background="new 0 0 390.072 734.533" xml:space="preserve">
<title  id="title3846">Mus Musculus</title>
<g id="layer1">
	<polygon opacity="0.5" fill="#404040" enable-background="new    " points="336.094,122.983 335.812,122.072 335.719,121.773 
		335.306,121.161 338.44,117.113 339.353,117.113 339.773,117.113 340.454,117.813 340.97,118.627 341.601,119.951 341.378,120.755 
		339.948,122.678 338.065,125.513 337.115,125.714 336.413,123.69 	"/>
	<polygon opacity="0.5" fill="#404040" enable-background="new    " points="49.01,120.347 48.805,119.542 49.402,118.031 
		50.42,115.906 51.332,116.101 53.359,118.832 54.364,120.148 54.776,121.469 54.364,122.587 53.665,124.9 52.25,124.806 
		50.223,122.072 	"/>
	<polygon opacity="0.5" fill="#404040" enable-background="new    " points="175.904,57.607 175.813,55.477 178.253,55.078 
		179.163,54.971 181.286,53.258 182.899,51.231 184.729,49.01 186.851,47.381 188.647,46.775 191.497,45.974 191.691,39.792 
		191.91,36.465 192.194,33.326 192.413,33.018 192.823,32.204 195.964,32.204 197.756,32.823 198.766,33.219 199,34.633 199,39.692 
		199,45.974 201.424,46.48 202.728,46.775 205.257,48.611 207.181,50.638 209.013,52.665 211.324,54.679 212.341,54.971 
		215.084,56.093 214.353,57.403 211.037,57.403 209.206,57.403 205.76,56.395 202.815,54.971 200.107,53.67 196.871,52.548 
		195.732,52.548 194.529,52.548 190.991,53.965 187.764,55.788 181.693,59.128 181.573,59.128 178.433,58.317 	"/>
	<polygon opacity="0.5" fill="#404040" enable-background="new    " points="183.207,39.394 183.496,37.986 184.222,36.968 
		184.821,35.959 185.614,33.932 185.932,32.515 186.248,30.991 187.869,28.37 189.574,26.534 192.609,23.398 192.697,23.207 
		192.697,17.428 192.697,10.452 193.707,7.124 195.638,7.526 197.376,7.808 197.988,10.75 198.168,18.041 198.262,23.207 
		198.389,23.606 201.298,26.749 203.553,29.067 204.648,30.991 204.966,33.433 205.257,35.236 206.083,37.483 206.769,38.281 
		207.594,39.186 207.787,39.899 207.283,40.516 205.978,41.716 203.646,39.394 201.023,34.334 198.766,29.982 198.494,29.674 
		195.732,29.674 192.003,29.674 191.306,30.176 189.162,35.236 187.131,39.899 184.321,42.222 183.496,40.104 	"/>
	<polygon opacity="0.5" fill="#404040" enable-background="new    " points="204.145,21.183 205.669,19.957 206.87,21.384 
		207.88,22.701 207.495,24.316 206.083,24.316 205.669,24.316 205.064,23.713 204.846,22.99 	"/>
	<polygon opacity="0.5" fill="#404040" enable-background="new    " points="183.207,21.183 185.108,20.058 185.846,20.869 
		186.94,21.89 186.248,23.502 184.729,23.502 183.908,23.502 183.207,22.99 183.207,22.393 	"/>
	<polygon opacity="0.5" fill="#404040" enable-background="new    " points="358.166,114.385 358.361,112.754 357.285,112.251 
		355.544,111.45 353.299,114.583 351.919,116.004 350.394,117.619 352.225,118.222 354.253,118.939 356.654,114.385 
		357.061,115.906 358.572,114.999 355.544,117.217 356.05,116.413 356.335,115.906 358.073,115.501 358.166,114.892 	"/>
	<polygon opacity="0.5" fill="#404040" enable-background="new    " points="37.979,114.781 35.953,112.66 34.944,113.063 
		32.977,112.251 34.944,115.79 36.968,116.302 38.179,116.604 39.498,116.915 39.688,117.013 39.909,117.013 39.688,117.013 
		38.678,115.79 	"/>
	<polygon opacity="0.5" fill="#404040" enable-background="new    " points="352.422,108.509 349.472,109.125 346.721,112.362 
		346.86,114.074 346.86,115.19 347.448,119.747 348.967,115.19 349.193,114.385 350.484,112.469 351.594,111.35 	"/>
	<polygon opacity="0.5" fill="#404040" enable-background="new    " points="42.83,113.666 38.485,109.42 36.968,109.42 
		35.45,109.42 37.161,111.651 39.094,112.66 40.297,113.377 41.309,114.275 41.309,114.687 41.309,115.089 41.622,115.501 
		42.027,115.501 42.533,115.501 42.83,115.19 42.83,114.892 	"/>
	<polygon opacity="0.5" fill="#404040" enable-background="new    " points="45.063,111.544 39.392,106.796 39.392,107.695 
		39.285,108.509 44.657,113.879 44.969,113.666 45.163,113.377 45.47,112.972 45.254,112.362 	"/>
	<polygon opacity="0.5" fill="#404040" enable-background="new    " points="343.686,110.944 344.634,108.201 345.139,107.192 
		346.033,105.473 344.33,106.184 342.609,107.695 340.871,109.326 341.156,112.972 341.601,114.385 343.686,112.754 
		343.686,111.856 	"/>
	<polygon opacity="0.5" fill="#404040" enable-background="new    " points="50.029,109.722 49.402,108.509 48.394,107.805 
		43.457,105.301 46.18,106.994 46.871,109.625 47.376,111.136 48.394,111.95 48.394,112.054 48.394,112.251 48.805,112.156 
		49.217,111.856 49.618,111.544 50.029,110.847 50.029,110.335 	"/>
	<polygon opacity="0.5" fill="#404040" enable-background="new    " points="176.406,31.697 173.087,29.982 172.775,29.982 
		172.364,29.982 172.078,30.176 172.078,30.582 172.078,30.9 171.861,32.009 171.572,33.018 171.254,34.227 171.449,34.84 
		172.171,34.84 172.87,34.84 176.319,34.438 176.406,33.018 	"/>
	<polygon opacity="0.5" fill="#404040" enable-background="new    " points="218.819,30.689 218.421,29.982 217.612,29.982 
		216.476,29.982 213.851,31.406 214.679,32.424 215.373,33.326 216.383,33.433 215.697,34.438 214.87,35.457 216.476,34.84 
		217.612,34.84 218.421,34.84 218.819,34.036 218.819,32.424 	"/>
	<path opacity="0.5" fill="#404040" enable-background="new    " d="M381.343,695.339l-0.585-1.01l-0.327-0.398l-1.006-1.229
		l0.504-0.289l1.71,0.896l1.019,0.622l0.125,1.91l0.083,1.132l0.1,0.89l-0.1,0.116l-0.083,0.081l-0.423-0.699l-0.503-1.02
		L381.343,695.339z M380.63,693.127l-0.297-0.208l0.297-0.731l0.443-1.084l0.506-2.03l2.904,0.896l1.511,0.422l1.149,0.506
		l0.195-0.214l-1.44-4.139l-0.407-1.214l-5.743-2.841l2.84,0.598l0.375,0.104l0.909,0.2l6.074,2.445l-0.214,2.729l-0.506,5.145
		l-1.205,0.503l-1.62,0.729h-0.211l-3.229-1.128L380.63,693.127z M360.836,117.113l-0.142-0.603l-0.093-0.506l-0.086-0.61
		l-0.632-0.911l-1.813-1.927l-2.112-2.114l-0.827-0.609l-2.118-1.227l-2.438-1.414h-0.182l-2.657-0.301l-2.727-0.298h-0.094
		l-2.309,0.71l-1.325,0.295l-2.844,2.338h-0.1h-0.094l2.027-2.526l0.375-0.52l0.95-1.417l1.58-0.597h3.034h2.026l0.444,0.091
		l2.21,0.918l4.935,2.218l3.854,2.744l1.65,2.818l1.011,1.622l0.066,0.308l-0.195,0.707l-0.183,0.412l-0.195,0.299h-0.229h-0.22
		l-0.186,1.423v0.191l-0.103,0.205l0.286,0.208l-0.058-0.313L360.836,117.113z M9.642,681.156l0.808-0.506h0.709h0.609l0.191,0.506
		l-0.397,0.713l-0.403,0.62l-0.811,0.52H9.642H9.031l-0.206-0.52l0.413-0.62L9.642,681.156z M0.228,692.188l9.011-10.706l2.428-0.83
		l1.417-0.38l-1.626,2.412l-1.624,1.836l-2.724,2.92l-2.737,1.31l3.042-0.681l2.936-0.824v0.824l-2.53,3.729l-1.111,1.716
		l-0.31,1.203H7.21h0.708l4.042,2.029l-0.397,1.021l-0.504,1.432l-4.353-1.221l-1.316-1.006l-1.211-1.019H3.365l-1.408,1.094
		l-1.521,1.224l-0.313-0.211v-2.322L0.228,692.188z M365.755,694.012l-6.067-2.838h-9.202l-13.747-0.193l-12.146-1.713l-5.188-2.646
		l-2.729-1.291l-6.16-4.554l-4.841-4.041l-7.532-6.379l-2.027-1.143l-5.332-0.701l-3.963-0.506l-3.54-1.323l-2.347-1.909
		l-6.644-5.472l0.699-10.712l7.27-3.74l4.254-2.14v-1.714l-4.112-3.85l-4.771-4.354l-4.796-2.025l-8.976-1.408l-10.759-1.825
		l-5.554,0.101l-7.589,2.237l-7.788,2.22l-4.359,4.156v5.34v9.024l2.959,2.11l22.972,7.692l14.781,4.959l5.771,2.318h-2.34
		l-2.654,0.123l-34.17-11.142l-6.188-3.028l-6.689-3.236l-4.041-5.36v-5.574v-6.57l3.752-4.558l8.809-3.949l6.266-2.933l2.529-0.507
		h8.914h13.858l7.701,1.611l11.218,5.063l11.325,5.159l2.757,3.23v8.205v5.563l-1.304,2.026l-1.73-2.729l-1.246-1.931l-4.313,0.506
		l-1.81,2.241l-4.376,5.648l4.151,6.271l9.896,2.943l3.481,1.02l5.063,2.922l4.038,3.462l14.458,12.147l1.745,0.584l20.24,1.519
		l15.876,1.213l8.404,2.958l3.228,5.444l1.896,3.461l1.834,0.893v-2.416v-1.122h0.321l1.091,1.122l2.319,2.313l0.631-0.714
		l-0.631-3.922l-0.506-3.47l0.214-0.195l1.745,1.436l3.313,2.616l-0.781,4.161l-4.362,2.022l-5.058,2.533v-0.116l-3.358-4.752
		L365.755,694.012z M66.925,732.385l6.065-4.976l9.013-6.271l11.323-7.899l20.239-6.773l22.078-3.033l30.237-4.23l14.398,0.812
		l31.136,7.473l17.521,4.16l3.43,0.507l7.39-0.728l8.919-0.794l10.808-4.041l4.685-4.161l3.555-3.228l0.054-6.785l-3.414-4.269
		l-2.723-3.432l-14.68-7.594l-9.611-2.915l-3.237-1.02l-8.907-1.744l-7.506-1.086l-18.519-2.659l-13.438-6.146l-10.013-10.547
		l-19.74-20.436l-1.941-0.908l-21.44-0.102l-11.859-0.104l-1.292,0.419l-5.373,2.525l-3.344,1.604l-2.526,1.229l-0.715,1.413
		l-0.699,1.323l-2.424,1.907l-0.824,0.928l-1.198,1.516l0.178,1.604l4.054,0.616l5.783,0.9l3.229,4.044l-0.087,5.772l-0.212,6.987
		l-2.929,2.526l-10.339,2.342l-8.792,2.029l-0.824,0.5l-8.598,7.976l-11.016,10.323l-7.302,3.229H53.258H40.003l-12.24,4.061
		l-8.097,7.299l-3.342,2.922v-2.726v-2.335l-0.313-0.19l-1.622,1.323l-1.515,1.297H12.36l-1.007-1.42l-1.306-2.019l1.009-5.173
		l2.023-1.086l2.028-1.214l0.396,0.893l-1.521,2.645l-2.025,3.622l0.312,1.825l2.336-1.825l1.608-1.305l0.508,0.095l0.809,1.337
		l0.816,1.195l1.409-0.696l4.35-3.96l8.092-7.172l5.463-1.944l16.297-1.291l15.496-1.315l5.747-2.146l6.994-7.392l4.969-5.264
		l7.49-4.741l5.564-1.521l2.629-0.704l3.441-1.829l1.411-1.511l2.418-2.416l0.112-0.729l-1.315-2.111l-1.005-1.521l-2.438-1.197
		l-3.335-0.436l-3.756,0.306l-1.305-1.104l-1.009-0.718l-0.402-2.609l-2.127-4.977l3.934-3.931l4.157-3.746l10.517-9.721
		l15.595-4.558l17.802,1.521l13.768,1.205l5.688,2.53l10.313,9.521l19.637,18.003l15.585,9.102l17.513,3.767l13.542,3.037
		l5.959,2.023l9.227,5.061l13.027,7.084l4.059,7.479l-3.82,9.729l-1.518,3.928l-1.626,1.632l-5.063,2.617l-3.535,1.716l-5.886,2.529
		l-3.733,1.231l-8.299,2.61l-6.483-0.587l-22.477-5.479l-27.313-6.664l-34.188-0.215l-30.463,6.373l-13.666,2.838l-7.188,3.232
		l10.516-1.396l2.943-0.422l18.525-0.598l19.615-0.422l34.123-0.587l2.116,0.081l9.525,2.451l32.655,8.286l13.279,0.83l17.271-5.693
		l8.603-2.729l3.548-1.833l4.285-3.922l7.675-7.209l3.54-7.671l-0.308-8.718l-0.196-6.379l-0.589,0.506l-3.647-3.11l-2.21-2.029
		l-4.377-2.954l-1.636-1.093l-1.72-1.126l-3.409-2.923h0.695l2.526-0.112l14.791,8.789l2.806,4.055l4.184,5.77l-1.15,9.029
		l-6.344,12.724l-9.037,18.021l-10.307,4.866l-28.96,0.106H220.14l-7.803-1.015l-26.093-5.776l-8.729-1.927l-12.421-1.505
		l-18.229-1.206l-23.876-1.519h-3.854l-9.524,1.603l-12.24,2.023l-14.678,4.655l-6.154,3.743l-6.686,4.161l-2.936,1.313v-1.013
		v-1.007h0.005V732.385z M12.172,678.76l15.371-6.197l13.768-4.049l29.852-8.798l5.677-3.648l-0.506-10.118l-0.11-2.733l-0.896-4.15
		l-1.018-2.307l-2.324-5.57l-16.002-18.932l-7.376-6.172l-6.794-5.564l-5.058-9.215l-3.934-14.158l-6.884-24.397l8.188-28.438
		l21.06-25.196L80.89,468.55l0.607-0.996l5.964-24.474l5.167-20.753l0.193-5.978l-2.83-34.409l-1.626-18.812v-6.583l1.511-28.748
		l1.021-18.014l1.12-16.912l0.391-2.53l1.636-10.615l4.047-18.716l1.517-4.343l2.131-5.568l0.196-17.199l-1.935-8.81l-1.515-6.879
		l-8.698-16.595l-5.977-7.295l-9.502-11.429l-6.476-13.05l-1.931-11.445l-0.503-2.416l-2.529-5.676l-2.723-4.664l-5.278-8.893
		l-7.177-6.068l-8.004-2.438l-7.78-2.219l-1.424-11.134l4.965-5.368l2.729-2.838l0.556,0.11l-3.498,6.976l-5.165,4.855l6.895,6.681
		l14.364,5.465l3.348,1.32l3.639,1.813l1.205,1.019l2.938,2.624l4.466,9.927l4.236,13.346l4.166,12.964l7.466,12.949l9.227,10.013
		l8.896,9.716l10.634,15.9l2.433,7.59l3.729,11.134l-2.814,15.074l-8.204,12.534l-7.789,12.134L94.15,304.94l-1.116,32.792
		l-0.715,23.656l0.206,8.329l2.733,31.854l0.596,7.104l1.11,13.135l0.824,9.011l1.615,19.339l-0.606,6.675l-4.25,10.304
		l-3.754,9.105l-6.063,6.792l-14.364,10.916l-12.24,9.316l-5.063,5.67l-5.564,10.53l-7.495,13.854l-1.93,7.389l0.199,13.547
		l0.113,8.405l0.707,5.563l1.315,3.549l1.211,2.944l1.824,5.356l1.211,3.739l2.213,6.675l8.818,11.743l18.001,20.341l9.514,10.727
		l2.438,5.257v9.324v6.158l-0.5,1.949l-2.53,3.313l-3.955,4.965l-1.717,0.606l-18.721,3.032l-12.556,2.022l-23.182,8.015
		l-10.712,4.351l-1.116,0.506l1.52-2.245v-0.397v-1.396H12.172z M374.549,679.959l-22.825-7.396l-11.446-1.709l-15.311-2.213
		l-13.438-4.874l-3.446-4.554l-3.131-4.161l-0.096-10.511l3.032-6.068l1.199-2.222l7.589-8.096l8.096-7.811l8.092-7.68l8.294-8.716
		l2.024-2.933l5.007-7.184l7.444-22.878l0.83-10.418l0.892-12.041l-2.53-19.129l-3.229-5.257l-8.091-13.565l-7.409-7.689
		l-12.831-8.51l-18.819-12.438l-5.982-6.367l-4.355-12.46l-3.606-10.706l0.057-18.136l3.984-15.363l1.717-6.396l1.888-8.982
		l0.734-4.769l1.291-8.387l0.631-72.854l-1.2-1.938l-0.312-0.49l-1.146-5.669l-1.005-6.402l-2.082-13.656l-4.501-14.057
		l-5.118-8.896l-5.188-9.11l-1.396-6.895l0.879-11.034l0.646-6.457l1.073-4.044l1.959-3.156l4.853-7.773l8.503-10.44l8.972-9.298
		l10.247-10.534l4.876-9.301l2.813-14.265l4.135-21.249l3.176-5.279l12.651-6.27l4.929-2.529l6.264-4.148l2.84-2.627l2.854-2.64
		l1.604-3.14v0.409v2.64l-2.751,5.965l-3.091,1.515l-5.563,2.729l-11.646,9.104l-3.259,4.271l-4.33,5.452l-2.027,5.572
		l-2.333,12.136l-2.438,13.157l-4.146,9.314l-8.918,12.337l-8.29,11.352l-3.857,8.189l-3.729,14.27l-3.535,13.667l-0.195,12.136
		l3.327,11.216l1.298,4.481l3.16,15.758l2.625,14.886l6.165,34.524l0.323,10.819l-4.464,33.069l-1.8,13.482l-1.521,16.089
		l0.057,6.162v28.034l11.866,25.896l22.044,20.348l8.313,7.591l14.167,22.152l3.541,10.829l5.564,16.998l0.507,19.842l-4.832,12.844
		l-3.666,9.826l-5.438,6.372l-24.096,22.255l-10.442,9.616l-3.354,5.363l-1.521,8.806l-0.688,4.773l0.128,0.39l5.243,4.959
		l5.753,5.357l9.428,3.739l11.52,1.624l10.939,1.418l30.761,12.558v2.842v1.519l-3.624-2.018L374.549,679.959z M130.47,132.398
		l5.362-27.833l0.821-4.349l0.506-2.837l-0.217-1.207l-4.237-0.62l-5.377-0.898l-11.418,1.82l-4.161,2.529l-4.255,2.733
		l-3.635,7.984v4.664v5.565l3.635,8.604l3.242,2.018l4.049,2.42l5.366,1.018l5.372-0.707l2.629-0.311l2.205-0.394v-0.11
		L130.47,132.398z M279.729,129.661l4.688-4.762v-7.984v-6.186l-0.713-6.464l-4.156-3.036l-6.066-4.357l-8.293-2.53h-9.319
		l-3.538-0.101l-2.45,1.427l-0.31,0.286l-0.587,0.519l4.756,20.837l3.356,12.051l1.808,6.159l6.071-0.698l3.305-0.509l4.288-1.012
		l1.726-0.905L279.729,129.661z M262.53,155.168l-4.376-7.501l-1.383-7.681l-2.654-14.475l-17.083-49.28l-5.454-9.112l-1.636-2.722
		l-4.041-5.063l-3.354-3.548l-5.946-6.275l1.213-5.163l2.53-10.417l-3.743-9.824l-7.484-3.031l-2.528-1.02l-1.332-1.719l-1.11-3.34
		l-1.508-4.943l-5.063-4.051h-4.751h-2.747l-6.081,4.846l-0.18,2.338l-0.101,0.912v1.519l0.191,1.012l0.087,1.119l-1.291,1.301
		l-2.022,0.726l-7.813,2.927l-4.56,6.868v8.711v3.032l0.824,4.041l1.025,1.926l1.005,1.833l0.284,1.816l-0.61,0.405l-9.199,5.874
		l-1.007,1.018l-6.17,11.825l-9.604,18.532l-11.463,35.811L133.3,136.75l-0.088,5.059l-4.466,8.497l-4.232,2.926l-4.36,3.146h-8.703
		l-6.389-3.146l-2.711-1.207l-5.165-4.653l-4.151-4.855l-8.896-10.423l-5.992-4.252l-9.906-2.941l-5.461-1.618l-3.545-2.026
		l-3.754-3.635l-2.917-2.729l-2.336-2.838v-0.704v-2.134l-3.646-1.213l-4.355-0.905l-3.331-0.616l-0.11-0.811l2.137-0.601
		l4.443-1.118l5.776,2.938l3.832,5.974l3.757,5.864l3.036,1.926l10.729,3.036l8.4,2.53l5.86,3.344l8.303,7.482l9.501,8.504
		l4.466,1.32l8.509-3.539l5.565-2.338l0.182-1.509l-5.244-1.021l-5.269-1.005l-7.48-6.373l-2.933-6.074l-3.647-7.391l0.097-6.986
		l4.051-7.589l5.245-10.122l14.171-7.69h13.063h3.449l1.808-0.506v-1.015v-2.419l11.953-18.509l4.968-5.177l5.063-5.264l0.502-1.521
		l0.688-10.121l0.606-8.187l4.771-8.004l7.271-5.06l3.049-2.208l1.92-2.346l0.093-1.515v-1.311l1.616-2.834l1.938-1.933l6.89-7.181
		l12.329,3.447l4.461,10.313l0.919,2.238l2.53,3.65l2.116,2.311l4.232,4.664l3.979,8.205l4.323,12.833l1.63,4.877l2.335,4.942
		l1.207,1.316l2.841,3.133l5.646,9.415l3.653,7.589l2.646,5.666l0.589,0.506h3.736h2.256l5.457,0.915l4.419,1.109l14.624,3.749
		l12.21,14.468l-2.027,11.241l-2.213,12.444l-6.897,8.609l-9.614,2.219l-3.232,0.707l-2.904,1.115l-0.321,0.503l-1.33,2.027
		l7.41,3.032h6.07l7.271-0.101l1.02-0.506l11.55-9.105l5.789-4.667l8.378-5.061l9.331-4.339l10.122-4.761l4.932-2.925l1.419-2.339
		l1.422-2.325l5.95-5.572l-2.596,3.545v3.146l-10.429,9.613l-5.758,1.618l-9.117,2.627l-3.352,2.436l-11.324,12.24l-6.068,6.581
		l-7.086,6.671l-2.659,1.615l-5.144,3.146l-6.365,0.401l-5.887-2.426L262.53,155.168z"/>
	<path opacity="0.5" fill="#404040" enable-background="new    " d="M381.343,695.339l-0.585-1.01l-0.327-0.398l-1.006-1.229
		l0.504-0.289l1.71,0.896l1.019,0.622l0.125,1.91l0.083,1.132l0.1,0.89l-0.1,0.116l-0.083,0.081l-0.423-0.699l-0.503-1.02
		L381.343,695.339z M380.63,693.127l-0.297-0.208l0.297-0.731l0.443-1.084l0.506-2.03l2.904,0.896l1.511,0.422l1.149,0.506
		l0.195-0.214l-1.44-4.139l-0.407-1.214l-5.743-2.841l2.84,0.598l0.375,0.104l0.909,0.2l6.074,2.445l-0.214,2.729l-0.506,5.145
		l-1.205,0.503l-1.62,0.729h-0.211l-3.229-1.128L380.63,693.127z M360.836,117.113l-0.142-0.603l-0.093-0.506l-0.086-0.61
		l-0.632-0.911l-1.813-1.927l-2.112-2.114l-0.827-0.609l-2.118-1.227l-2.438-1.414h-0.182l-2.657-0.301l-2.727-0.298h-0.094
		l-2.309,0.71l-1.325,0.295l-2.844,2.338h-0.1h-0.094l2.027-2.526l0.375-0.52l0.95-1.417l1.58-0.597h3.034h2.026l0.444,0.091
		l2.21,0.918l4.935,2.218l3.854,2.744l1.65,2.818l1.011,1.622l0.066,0.308l-0.195,0.707l-0.183,0.412l-0.195,0.299h-0.229h-0.22
		l-0.186,1.423v0.191l-0.103,0.205l0.286,0.208l-0.058-0.313L360.836,117.113z M9.642,681.156l0.808-0.506h0.709h0.609l0.191,0.506
		l-0.397,0.713l-0.403,0.62l-0.811,0.52H9.642H9.031l-0.206-0.52l0.413-0.62L9.642,681.156z M0.228,692.188l9.011-10.706l2.428-0.83
		l1.417-0.38l-1.626,2.412l-1.624,1.836l-2.724,2.92l-2.737,1.31l3.042-0.681l2.936-0.824v0.824l-2.53,3.729l-1.111,1.716
		l-0.31,1.203H7.21h0.708l4.042,2.029l-0.397,1.021l-0.504,1.432l-4.353-1.221l-1.316-1.006l-1.211-1.019H3.365l-1.408,1.094
		l-1.521,1.224l-0.313-0.211v-2.322L0.228,692.188z M365.755,694.012l-6.067-2.838h-9.202l-13.747-0.193l-12.146-1.713l-5.188-2.646
		l-2.729-1.291l-6.16-4.554l-4.841-4.041l-7.532-6.379l-2.027-1.143l-5.332-0.701l-3.963-0.506l-3.54-1.323l-2.347-1.909
		l-6.644-5.472l0.699-10.712l7.27-3.74l4.254-2.14v-1.714l-4.112-3.85l-4.771-4.354l-4.796-2.025l-8.976-1.408l-10.759-1.825
		l-5.554,0.101l-7.589,2.237l-7.788,2.22l-4.359,4.156v5.34v9.024l2.959,2.11l22.972,7.692l14.781,4.959l5.771,2.318h-2.34
		l-2.654,0.123l-34.17-11.142l-6.188-3.028l-6.689-3.236l-4.041-5.36v-5.574v-6.57l3.752-4.558l8.809-3.949l6.266-2.933l2.529-0.507
		h8.914h13.858l7.701,1.611l11.218,5.063l11.325,5.159l2.757,3.23v8.205v5.563l-1.304,2.026l-1.73-2.729l-1.246-1.931l-4.313,0.506
		l-1.81,2.241l-4.376,5.648l4.151,6.271l9.896,2.943l3.481,1.02l5.063,2.922l4.038,3.462l14.458,12.147l1.745,0.584l20.24,1.519
		l15.876,1.213l8.404,2.958l3.228,5.444l1.896,3.461l1.834,0.893v-2.416v-1.122h0.321l1.091,1.122l2.319,2.313l0.631-0.714
		l-0.631-3.922l-0.506-3.47l0.214-0.195l1.745,1.436l3.313,2.616l-0.781,4.161l-4.362,2.022l-5.058,2.533v-0.116l-3.358-4.752
		L365.755,694.012z M66.925,732.385l6.065-4.976l9.013-6.271l11.323-7.899l20.239-6.773l22.078-3.033l30.237-4.23l14.398,0.812
		l31.136,7.473l17.521,4.16l3.43,0.507l7.39-0.728l8.919-0.794l10.808-4.041l4.685-4.161l3.555-3.228l0.054-6.785l-3.414-4.269
		l-2.723-3.432l-14.68-7.594l-9.611-2.915l-3.237-1.02l-8.907-1.744l-7.506-1.086l-18.519-2.659l-13.438-6.146l-10.013-10.547
		l-19.74-20.436l-1.941-0.908l-21.44-0.102l-11.859-0.104l-1.292,0.419l-5.373,2.525l-3.344,1.604l-2.526,1.229l-0.715,1.413
		l-0.699,1.323l-2.424,1.907l-0.824,0.928l-1.198,1.516l0.178,1.604l4.054,0.616l5.783,0.9l3.229,4.044l-0.087,5.772l-0.212,6.987
		l-2.929,2.526l-10.339,2.342l-8.792,2.029l-0.824,0.5l-8.598,7.976l-11.016,10.323l-7.302,3.229H53.258H40.003l-12.24,4.061
		l-8.097,7.299l-3.342,2.922v-2.726v-2.335l-0.313-0.19l-1.622,1.323l-1.515,1.297H12.36l-1.007-1.42l-1.306-2.019l1.009-5.173
		l2.023-1.086l2.028-1.214l0.396,0.893l-1.521,2.645l-2.025,3.622l0.312,1.825l2.336-1.825l1.608-1.305l0.508,0.095l0.809,1.337
		l0.816,1.195l1.409-0.696l4.35-3.96l8.092-7.172l5.463-1.944l16.297-1.291l15.496-1.315l5.747-2.146l6.994-7.392l4.969-5.264
		l7.49-4.741l5.564-1.521l2.629-0.704l3.441-1.829l1.411-1.511l2.418-2.416l0.112-0.729l-1.315-2.111l-1.005-1.521l-2.438-1.197
		l-3.335-0.436l-3.756,0.306l-1.305-1.104l-1.009-0.718l-0.402-2.609l-2.127-4.977l3.934-3.931l4.157-3.746l10.517-9.721
		l15.595-4.558l17.802,1.521l13.768,1.205l5.688,2.53l10.313,9.521l19.637,18.003l15.585,9.102l17.513,3.767l13.542,3.037
		l5.959,2.023l9.227,5.061l13.027,7.084l4.059,7.479l-3.82,9.729l-1.518,3.928l-1.626,1.632l-5.063,2.617l-3.535,1.716l-5.886,2.529
		l-3.733,1.231l-8.299,2.61l-6.483-0.587l-22.477-5.479l-27.313-6.664l-34.188-0.215l-30.463,6.373l-13.666,2.838l-7.188,3.232
		l10.516-1.396l2.943-0.422l18.525-0.598l19.615-0.422l34.123-0.587l2.116,0.081l9.525,2.451l32.655,8.286l13.279,0.83l17.271-5.693
		l8.603-2.729l3.548-1.833l4.285-3.922l7.675-7.209l3.54-7.671l-0.308-8.718l-0.196-6.379l-0.589,0.506l-3.647-3.11l-2.21-2.029
		l-4.377-2.954l-1.636-1.093l-1.72-1.126l-3.409-2.923h0.695l2.526-0.112l14.791,8.789l2.806,4.055l4.184,5.77l-1.15,9.029
		l-6.344,12.724l-9.037,18.021l-10.307,4.866l-28.96,0.106H220.14l-7.803-1.015l-26.093-5.776l-8.729-1.927l-12.421-1.505
		l-18.229-1.206l-23.876-1.519h-3.854l-9.524,1.603l-12.24,2.023l-14.678,4.655l-6.154,3.743l-6.686,4.161l-2.936,1.313v-1.013
		v-1.007h0.005V732.385z M12.172,678.76l15.371-6.197l13.768-4.049l29.852-8.798l5.677-3.648l-0.506-10.118l-0.11-2.733l-0.896-4.15
		l-1.018-2.307l-2.324-5.57l-16.002-18.932l-7.376-6.172l-6.794-5.564l-5.058-9.215l-3.934-14.158l-6.884-24.397l8.188-28.438
		l21.06-25.196L80.89,468.55l0.607-0.996l5.964-24.474l5.167-20.753l0.193-5.978l-2.83-34.409l-1.626-18.812v-6.583l1.511-28.748
		l1.021-18.014l1.12-16.912l0.391-2.53l1.636-10.615l4.047-18.716l1.517-4.343l2.131-5.568l0.196-17.199l-1.935-8.81l-1.515-6.879
		l-8.698-16.595l-5.977-7.295l-9.502-11.429l-6.476-13.05l-1.931-11.445l-0.503-2.416l-2.529-5.676l-2.723-4.664l-5.278-8.893
		l-7.177-6.068l-8.004-2.438l-7.78-2.219l-1.424-11.134l4.965-5.368l2.729-2.838l0.556,0.11l-3.498,6.976l-5.165,4.855l6.895,6.681
		l14.364,5.465l3.348,1.32l3.639,1.813l1.205,1.019l2.938,2.624l4.466,9.927l4.236,13.346l4.166,12.964l7.466,12.949l9.227,10.013
		l8.896,9.716l10.634,15.9l2.433,7.59l3.729,11.134l-2.814,15.074l-8.204,12.534l-7.789,12.134L94.15,304.94l-1.116,32.792
		l-0.715,23.656l0.206,8.329l2.733,31.854l0.596,7.104l1.11,13.135l0.824,9.011l1.615,19.339l-0.606,6.675l-4.25,10.304
		l-3.754,9.105l-6.063,6.792l-14.364,10.916l-12.24,9.316l-5.063,5.67l-5.564,10.53l-7.495,13.854l-1.93,7.389l0.199,13.547
		l0.113,8.405l0.707,5.563l1.315,3.549l1.211,2.944l1.824,5.356l1.211,3.739l2.213,6.675l8.818,11.743l18.001,20.341l9.514,10.727
		l2.438,5.257v9.324v6.158l-0.5,1.949l-2.53,3.313l-3.955,4.965l-1.717,0.606l-18.721,3.032l-12.556,2.022l-23.182,8.015
		l-10.712,4.351l-1.116,0.506l1.52-2.245v-0.397v-1.396H12.172z M374.549,679.959l-22.825-7.396l-11.446-1.709l-15.311-2.213
		l-13.438-4.874l-3.446-4.554l-3.131-4.161l-0.096-10.511l3.032-6.068l1.199-2.222l7.589-8.096l8.096-7.811l8.092-7.68l8.294-8.716
		l2.024-2.933l5.007-7.184l7.444-22.878l0.83-10.418l0.892-12.041l-2.53-19.129l-3.229-5.257l-8.091-13.565l-7.409-7.689
		l-12.831-8.51l-18.819-12.438l-5.982-6.367l-4.355-12.46l-3.606-10.706l0.057-18.136l3.984-15.363l1.717-6.396l1.888-8.982
		l0.734-4.769l1.291-8.387l0.631-72.854l-1.2-1.938l-0.312-0.49l-1.146-5.669l-1.005-6.402l-2.082-13.656l-4.501-14.057
		l-5.118-8.896l-5.188-9.11l-1.396-6.895l0.879-11.034l0.646-6.457l1.073-4.044l1.959-3.156l4.853-7.773l8.503-10.44l8.972-9.298
		l10.247-10.534l4.876-9.301l2.813-14.265l4.135-21.249l3.176-5.279l12.651-6.27l4.929-2.529l6.264-4.148l2.84-2.627l2.854-2.64
		l1.604-3.14v0.409v2.64l-2.751,5.965l-3.091,1.515l-5.563,2.729l-11.646,9.104l-3.259,4.271l-4.33,5.452l-2.027,5.572
		l-2.333,12.136l-2.438,13.157l-4.146,9.314l-8.918,12.337l-8.29,11.352l-3.857,8.189l-3.729,14.27l-3.535,13.667l-0.195,12.136
		l3.327,11.216l1.298,4.481l3.16,15.758l2.625,14.886l6.165,34.524l0.323,10.819l-4.464,33.069l-1.8,13.482l-1.521,16.089
		l0.057,6.162v28.034l11.866,25.896l22.044,20.348l8.313,7.591l14.167,22.152l3.541,10.829l5.564,16.998l0.507,19.842l-4.832,12.844
		l-3.666,9.826l-5.438,6.372l-24.096,22.255l-10.442,9.616l-3.354,5.363l-1.521,8.806l-0.688,4.773l0.128,0.39l5.243,4.959
		l5.753,5.357l9.428,3.739l11.52,1.624l10.939,1.418l30.761,12.558v2.842v1.519l-3.624-2.018L374.549,679.959z M130.47,132.398
		l5.362-27.833l0.821-4.349l0.506-2.837l-0.217-1.207l-4.237-0.62l-5.377-0.898l-11.418,1.82l-4.161,2.529l-4.255,2.733
		l-3.635,7.984v4.664v5.565l3.635,8.604l3.242,2.018l4.049,2.42l5.366,1.018l5.372-0.707l2.629-0.311l2.205-0.394v-0.11
		L130.47,132.398z M279.729,129.661l4.688-4.762v-7.984v-6.186l-0.713-6.464l-4.156-3.036l-6.066-4.357l-8.293-2.53h-9.319
		l-3.538-0.101l-2.45,1.427l-0.31,0.286l-0.587,0.519l4.756,20.837l3.356,12.051l1.808,6.159l6.071-0.698l3.305-0.509l4.288-1.012
		l1.726-0.905L279.729,129.661z M262.53,155.168l-4.376-7.501l-1.383-7.681l-2.654-14.475l-17.083-49.28l-5.454-9.112l-1.636-2.722
		l-4.041-5.063l-3.354-3.548l-5.946-6.275l1.213-5.163l2.53-10.417l-3.743-9.824l-7.484-3.031l-2.528-1.02l-1.332-1.719l-1.11-3.34
		l-1.508-4.943l-5.063-4.051h-4.751h-2.747l-6.081,4.846l-0.18,2.338l-0.101,0.912v1.519l0.191,1.012l0.087,1.119l-1.291,1.301
		l-2.022,0.726l-7.813,2.927l-4.56,6.868v8.711v3.032l0.824,4.041l1.025,1.926l1.005,1.833l0.284,1.816l-0.61,0.405l-9.199,5.874
		l-1.007,1.018l-6.17,11.825l-9.604,18.532l-11.463,35.811L133.3,136.75l-0.088,5.059l-4.466,8.497l-4.232,2.926l-4.36,3.146h-8.703
		l-6.389-3.146l-2.711-1.207l-5.165-4.653l-4.151-4.855l-8.896-10.423l-5.992-4.252l-9.906-2.941l-5.461-1.618l-3.545-2.026
		l-3.754-3.635l-2.917-2.729l-2.336-2.838v-0.704v-2.134l-3.646-1.213l-4.355-0.905l-3.331-0.616l-0.11-0.811l2.137-0.601
		l4.443-1.118l5.776,2.938l3.832,5.974l3.757,5.864l3.036,1.926l10.729,3.036l8.4,2.53l5.86,3.344l8.303,7.482l9.501,8.504
		l4.466,1.32l8.509-3.539l5.565-2.338l0.182-1.509l-5.244-1.021l-5.269-1.005l-7.48-6.373l-2.933-6.074l-3.647-7.391l0.097-6.986
		l4.051-7.589l5.245-10.122l14.171-7.69h13.063h3.449l1.808-0.506v-1.015v-2.419l11.953-18.509l4.968-5.177l5.063-5.264l0.502-1.521
		l0.688-10.121l0.606-8.187l4.771-8.004l7.271-5.06l3.049-2.208l1.92-2.346l0.093-1.515v-1.311l1.616-2.834l1.938-1.933l6.89-7.181
		l12.329,3.447l4.461,10.313l0.919,2.238l2.53,3.65l2.116,2.311l4.232,4.664l3.979,8.205l4.323,12.833l1.63,4.877l2.335,4.942
		l1.207,1.316l2.841,3.133l5.646,9.415l3.653,7.589l2.646,5.666l0.589,0.506h3.736h2.256l5.457,0.915l4.419,1.109l14.624,3.749
		l12.21,14.468l-2.027,11.241l-2.213,12.444l-6.897,8.609l-9.614,2.219l-3.232,0.707l-2.904,1.115l-0.321,0.503l-1.33,2.027
		l7.41,3.032h6.07l7.271-0.101l1.02-0.506l11.55-9.105l5.789-4.667l8.378-5.061l9.331-4.339l10.122-4.761l4.932-2.925l1.419-2.339
		l1.422-2.325l5.95-5.572l-2.596,3.545v3.146l-10.429,9.613l-5.758,1.618l-9.117,2.627l-3.352,2.436l-11.324,12.24l-6.068,6.581
		l-7.086,6.671l-2.659,1.615l-5.144,3.146l-6.365,0.401l-5.887-2.426L262.53,155.168z"/>
</g>
<polygon id="bto_0000142" fill="#808080" fill-opacity="0.5" stroke="#787878" stroke-width="0.5" points="172.464,144.219 
	165.587,137.643 162.345,131.063 158.093,122.357 159.113,111.022 165.488,93.82 170.044,81.578 175.302,71.961 178.744,69.633 
	181.173,68.011 181.58,67.405 181.077,66.088 179.455,61.642 181.478,53.142 185.228,48.883 186.847,47.067 190.582,47.164 
	192.707,49.191 194.536,50.81 196.254,49.191 198.382,47.164 202.125,47.067 203.745,48.883 207.691,53.44 209.814,61.742 
	207.889,65.585 206.777,67.713 206.879,67.914 208,68.319 216.191,70.849 229.957,105.256 229.147,120.939 228.744,128.324 
	226.001,133.994 219.837,140.172 216.496,143.506 213.965,145.231 210.317,146.749 205.664,148.565 204.451,148.669 
	194.437,148.669 184.615,148.565 183.1,148.468 178.644,146.643 "/>
<polygon id="bto_0001279" fill="#808080" fill-opacity="0.5" stroke="#787878" stroke-width="0.5" points="203.555,612.391 
	202.85,611.282 201.419,607.773 200.516,605.264 197.654,600.438 195.103,597.122 192.457,593.809 190.417,590.495 190.417,589.896 
	190.417,589.094 191.319,588.693 192.75,588.693 194.888,588.788 195.006,588.594 195.103,584.977 195.203,581.465 195.006,580.965 
	191.319,577.445 186.024,572.521 184.906,569.111 188.79,570.12 191.025,570.719 190.71,565.197 190.514,560.579 190.103,559.068 
	188.063,556.363 185.22,552.441 185.004,551.038 187.358,551.538 188.79,551.745 189.083,551.439 188.886,549.637 188.79,548.432 
	188.79,546.323 188.886,544.909 188.886,543.411 188.671,540.596 188.279,538.488 187.77,535.782 187.77,534.575 188.475,533.771 
	189.691,532.469 189.691,528.447 188.377,527.143 187.24,526.036 186.945,522.622 187.867,521.622 188.181,521.416 188.574,518.104 
	188.79,514.288 189.18,508.67 189.083,506.963 187.966,504.954 186.436,502.141 186.24,494.609 187.652,493.706 189.495,492.5 
	190.103,488.893 188.986,486.676 188.063,484.971 187.966,483.266 188.574,477.842 189.083,472.42 189.083,470.616 188.181,469.008 
	187.358,467.202 187.24,465.594 188.063,459.567 188.79,453.55 188.671,451.942 187.867,450.845 187.24,450.04 186.847,448.031 
	186.945,446.325 186.945,444.716 186.632,441.402 186.024,439.099 185.513,436.784 185.317,434.577 185.631,434.077 
	185.828,433.677 184.906,431.863 183.474,430.058 181.042,426.843 179.905,423.529 179.396,417.605 179.101,414.29 179.808,413.39 
	182.769,413.486 183.789,413.486 183.985,413.085 183.789,411.585 183.592,410.478 183.082,408.976 182.552,408.271 
	180.924,405.956 177.984,397.926 178.081,396.12 178.081,395.11 178.788,393.808 179.708,393.31 181.847,391.797 181.75,388.09 
	179.2,382.158 177.572,378.246 177.161,376.345 177.572,374.433 177.866,372.922 178.395,370.715 178.591,369.411 178.984,367.607 
	178.591,366.098 176.943,363.186 175.533,360.882 174.807,358.568 174.904,357.164 175.022,355.861 174.904,353.752 
	174.708,352.439 174.296,350.733 174.611,349.33 175.845,347.223 177.572,344.105 178.277,338.486 177.042,337.582 176.65,337.28 
	175.945,336.181 175.533,335.27 175.022,333.967 175.12,333.269 176.335,332.16 177.572,331.055 177.768,330.455 177.161,329.553 
	176.552,328.651 176.552,327.847 177.257,326.238 178.18,324.023 177.984,320.209 176.749,318.403 176.042,317.198 176.846,314.688 
	178.493,312.885 179.494,311.775 179.494,311.578 177.984,311.276 176.042,310.873 176.042,310.472 177.669,308.364 
	178.885,307.061 178.885,306.354 178.18,303.345 177.454,300.638 177.454,299.529 178.18,298.823 179.296,297.519 179.396,294.911 
	178.277,294.509 177.669,294.204 177.768,293.607 178.493,292.195 178.984,291.096 179.296,289.283 179.101,288.087 
	178.788,286.577 178.984,286.076 179.808,286.076 181.142,286.076 181.533,282.057 180.317,281.556 178.885,281.057 
	178.885,274.222 180.219,273.624 182.14,272.819 181.651,269.809 179.396,267.7 176.943,265.593 177.161,264.289 179.808,264.387 
	181.533,264.485 181.75,264.083 181.847,260.171 181.944,256.758 181.651,255.65 180.534,254.846 179.592,254.347 179.101,253.041 
	179.101,251.738 179.2,249.728 179.296,249.63 180.317,250.631 181.239,251.531 181.651,251.531 182.14,250.531 183.474,248.326 
	183.082,245.814 180.924,243.198 178.081,239.99 178.081,237.981 180.728,238.784 182.67,239.481 182.769,239.383 182.455,235.569 
	182.358,233.362 181.651,231.049 180.728,229.842 178.689,227.441 178.788,226.431 180.924,226.126 183.181,225.833 183.69,222.116 
	181.75,219.91 179.905,217.998 179.808,215.183 181.435,214.487 183.278,213.781 183.181,208.458 181.336,207.859 179.396,207.251 
	179.494,204.947 181.435,203.644 183.278,202.338 183.592,199.72 181.944,198.917 180.534,198.22 180.631,194.809 182.14,193.396 
	182.769,192.895 183.377,191.386 183.377,190.288 183.474,188.68 182.867,187.875 180.728,186.768 177.042,184.866 177.042,184.963 
	179.101,183.159 181.651,180.944 180.828,178.834 177.357,178.434 175.727,178.238 174.395,177.639 174.296,177.031 174.1,176.324 
	174.904,176.227 177.042,176.629 179.2,176.932 180.121,176.835 180.121,176.128 180.121,175.531 179.494,174.825 178.689,174.521 
	177.257,174.021 176.552,172.511 177.866,172.511 178.18,172.511 178.984,172.01 179.808,171.51 181.336,170.207 180.828,167.392 
	178.984,167.295 178.081,167.295 178.18,166.99 179.494,165.883 181.847,164.177 181.944,161.372 179.708,161.263 178.081,161.166 
	180.121,159.46 182.67,157.45 183.082,154.939 180.828,155.744 178.591,156.449 178.984,154.646 181.435,152.938 184.397,150.93 
	184.906,149.92 183.69,148.713 182.14,147.408 182.258,147.008 184.593,143.692 186.632,140.78 186.729,138.977 184.69,138.878 
	183.474,138.878 183.377,137.368 184.397,135.563 184.906,134.662 185.631,134.759 188.063,136.271 192.142,138.878 
	198.458,139.781 203.555,138.575 208.752,137.27 210.302,138.378 209.479,142.791 209.067,144.702 209.165,145.605 209.772,145.605 
	210.302,145.605 210.499,146.605 210.086,148.614 209.89,150.223 209.988,151.929 210.399,152.43 210.91,153.135 210.91,153.842 
	210.086,154.743 209.165,155.95 209.165,156.352 210.302,157.353 211.911,158.753 211.811,160.068 209.988,160.567 207.851,161.166 
	207.949,162.774 210.184,163.479 212.44,164.177 212.538,165.284 210.499,166.491 208.556,167.598 208.459,169 210.399,169.599 
	212.029,170.207 212.322,171.305 210.91,171.913 210.086,172.217 210.086,172.618 210.792,174.119 211.911,176.53 211.302,177.736 
	209.067,177.639 208.047,177.639 206.929,178.139 206.419,178.737 204.987,180.648 204.378,185.169 205.398,186.669 
	206.105,187.875 206.006,188.277 204.575,189.387 202.751,190.787 202.439,193.103 203.655,195.71 204.478,197.21 204.262,197.612 
	202.85,198.721 200.712,200.427 200.516,203.937 202.439,205.25 204.575,206.556 204.262,209.262 201.928,209.87 199.477,210.565 
	198.966,215.086 201.32,215.987 203.359,216.792 203.163,218.596 200.811,219.704 199.378,220.411 198.87,221.312 198.87,223.323 
	198.77,225.528 199.066,225.93 200.615,225.93 202.027,226.029 202.536,226.431 202.439,227.94 202.439,229.038 201.712,230.353 
	200.811,230.952 198.673,232.352 198.576,237.178 200.615,237.883 202.536,238.481 202.439,241.296 200.516,242.394 
	199.378,243.099 198.87,244.208 198.77,246.718 198.77,249.424 198.966,250.129 200.3,250.325 202.654,250.836 202.751,252.64 
	200.516,253.846 198.966,254.543 198.576,255.454 198.458,257.562 198.359,261.269 198.966,263.18 200.204,263.18 201.831,263.279 
	201.32,267.397 199.575,268.604 197.438,270.005 197.339,274.928 199.378,275.731 201.223,276.536 201.223,278.948 199.163,280.252 
	197.438,281.458 197.142,283.566 198.576,284.262 199.693,284.772 199.575,293.901 198.458,295.912 198.065,296.52 198.162,297.519 
	198.576,298.226 199.163,299.029 199.281,300.735 198.77,303.038 198.359,305.451 198.458,307.363 199.066,308.863 199.889,310.678 
	199.889,311.179 199.066,311.473 197.654,311.981 197.849,314.091 199.575,317.101 201.005,319.513 201.005,319.807 
	199.889,320.514 198.261,321.512 198.065,325.337 199.477,328.75 199.986,330.054 200.3,331.955 199.986,332.865 199.693,333.671 
	199.889,335.379 200.398,336.573 201.105,338.289 201.105,339.191 200.3,341.398 198.065,347.017 198.162,348.526 200.516,350.733 
	203.163,353.145 203.262,354.547 201.105,358.066 200.3,359.47 199.477,362.077 199.477,363.794 199.378,366.402 199.79,367.401 
	201.516,368.911 204.164,371.217 204.164,372.922 201.516,379.354 198.77,385.681 198.966,387.885 202.536,389.993 205.085,391.601 
	205.301,392.003 205.204,395.415 205.085,397.427 204.478,400.436 203.87,402.044 203.262,403.652 202.439,406.163 202.125,407.771 
	201.516,410.478 201.614,410.683 203.046,410.173 204.262,409.771 204.674,409.976 204.674,411.183 204.575,412.082 204.889,413.29 
	205.398,413.791 205.812,414.29 206.203,417.704 206.301,421.419 206.517,427.341 206.419,428.351 204.889,430.558 203.771,432.166 
	203.262,433.773 203.458,434.98 204.066,438.49 202.027,451.138 200.615,452.95 199.163,454.656 199.378,458.97 200.811,458.97 
	201.831,459.069 201.419,467.495 200.398,467.801 199.889,468.008 199.281,470.215 198.966,472.725 198.576,476.743 
	198.673,477.243 200.104,477.743 201.928,478.342 202.027,480.559 200.398,483.971 199.79,485.176 198.966,488.088 198.673,490.295 
	198.065,493.807 198.162,494.413 199.477,495.314 201.223,496.422 201.516,501.238 200.104,502.846 198.576,504.452 
	198.359,519.711 199.79,524.327 200.811,527.741 200.811,528.948 200.104,531.161 198.77,534.771 198.77,541.301 200.104,543.204 
	200.909,544.409 200.909,545.616 199.986,550.637 198.87,556.961 199.378,560.275 201.419,560.375 201.928,560.375 203.046,560.982 
	203.87,561.688 205.398,562.99 203.771,568.014 201.712,574.032 202.243,578.857 204.791,579.355 208.145,579.954 209.067,582.67 
	208.969,591.202 208.852,595.518 208.459,599.536 208.047,600.135 206.929,601.547 207.851,602.947 209.772,603.047 
	212.029,603.047 213.95,607.566 213.341,610.979 212.852,613.295 212.538,613.488 210.086,613.295 208.556,613.195 206.419,612.893 
	205.301,612.686 "/>
<polygon id="bto_0000562" fill="#808080" fill-opacity="0.5" stroke="#787878" stroke-width="0.5" points="174.89,293.71 
	170.956,289.767 167.006,282.479 162.238,273.373 163.257,254.552 168.822,249.185 172.568,245.747 177.532,244.33 185.218,244.33 
	194.023,244.33 199.083,245.643 202.719,249.087 204.953,251.212 205.458,252.428 205.458,256.167 205.458,262.547 199.381,291.891 
	197.462,294.722 196.147,296.85 195.34,297.047 190.07,297.047 186.838,297.047 182.591,296.441 180.564,295.737 "/>
<polygon id="bto_0001307" fill="#808080" fill-opacity="0.5" stroke="#787878" stroke-width="0.5" points="187.659,377.789 
	187.459,376.774 187.152,375.665 186.848,374.451 186.848,372.83 187.255,371.112 187.965,368.681 188.171,368.274 192.621,363.215 
	195.964,359.271 197.988,357.345 200.31,355.625 204.152,352.798 204.966,351.373 205.17,347.531 205.269,343.885 204.264,342.776 
	201.734,343.784 199.4,344.693 198.186,344.596 195.251,343.281 190.295,341.155 185.938,337.411 185.127,330.828 184.929,328.911 
	185.531,327.598 185.742,326.284 185.938,323.952 187.055,321.226 189.079,318.99 193.639,313.834 202.029,309.582 207.601,309.582 
	210.132,309.582 213.573,309.582 217.108,311.203 221.263,313.12 222.167,311.402 229.257,317.677 240.087,327.289 240.79,334.577 
	241.708,341.66 242.512,347.631 241.195,356.336 239.073,359.367 235.841,364.025 227.233,368.075 217.614,369.49 211.243,370.397 
	209.212,371.011 207.292,372.522 206.488,373.136 205.071,374.044 204.053,374.649 202.542,375.457 200.209,377.99 199.4,379.815 
	199.204,380.112 198.494,380.112 197.482,379.608 195.251,378.7 192.423,378.394 190.295,379.006 188.468,379.513 187.459,379.203 
	187.659,378.099 "/>
<polygon id="bto_0000706" fill="#808080" fill-opacity="0.5" stroke="#787878" stroke-width="0.5" points="227.354,500.446 
	226.421,499.84 224.308,497.816 223.398,496.905 222.167,496.098 221.775,495.996 220.77,494.479 221.162,495.186 220.869,494.375 
	220.77,493.766 220.869,494.375 220.869,492.757 221.263,491.948 221.062,491.235 221.062,490.528 221.062,488.81 221.874,485.168 
	223.197,484.253 223.792,483.852 224.308,483.448 224.407,483.141 225.316,481.724 228.359,479.398 229.562,478.487 
	232.092,476.567 233.1,476.663 234.427,473.729 235.236,472.114 236.344,470.29 236.957,469.584 238.16,468.166 240.79,466.445 
	242.531,465.839 245.653,464.727 246.78,462.698 245.752,459.666 245.259,458.25 245.259,457.64 245.554,456.325 246.07,454.299 
	247.372,451.77 248.377,450.861 249.506,449.85 249.707,449.038 248.995,447.115 248.282,445.095 248.59,443.678 249.905,441.755 
	251.119,439.835 248.794,432.849 247.986,430.42 247.884,430.117 248.183,425.457 248.377,420.603 248.377,420.502 249.399,419.39 
	250.114,418.782 250.518,417.868 250.712,416.96 250.811,415.744 250.712,415.543 249.399,414.227 248.489,413.215 247.884,412.103 
	247.471,410.99 246.875,408.664 246.875,408.561 247.68,405.525 248.083,403.702 248.698,402.59 249.905,401.173 251.83,398.746 
	252.036,397.531 250.318,395.912 248.794,394.498 247.273,394.093 243.833,394.19 242.019,394.19 239.779,393.89 237.965,393.483 
	233.319,392.37 231.599,392.974 227.354,396.924 225.316,398.948 224.108,399.655 220.869,401.173 217.426,402.794 216.615,403.096 
	214.896,403.096 212.367,403.096 211.656,403.605 210.33,406.232 209.325,408.46 208.313,409.067 204.677,409.877 202.441,410.28 
	201.536,410.685 200.012,411.801 193.847,416.658 193.527,416.756 184.633,417.365 174.099,417.973 170.755,417.868 168.545,416.96 
	167.22,416.454 165.6,416.15 163.485,416.15 160.755,415.945 160.144,415.848 157.417,414.534 153.758,412.712 152.452,412.712 
	152.139,414.632 151.841,416.253 149.822,419.39 148.698,419.896 147.393,420.603 147.292,421.514 148.204,423.031 149.311,424.751 
	149.41,429.203 148.405,430.319 147.886,430.824 147.793,431.23 147.985,431.938 148.405,433.455 148.204,435.781 147.592,437.911 
	146.681,441.145 146.681,441.349 147.292,442.565 147.592,443.169 147.793,444.181 147.793,444.69 147.793,445.192 147.985,446.613 
	148.204,447.828 148.405,449.344 148.405,450.758 148.204,451.873 147.985,453.391 147.985,453.894 148.698,455.214 
	149.822,457.541 150.515,460.072 150.323,461.386 150.223,462.497 150.323,463.007 151.329,464.217 153.758,467.356 
	154.568,470.697 153.858,474.539 153.563,476.16 153.563,476.259 155.382,478.186 158.222,481.522 160.044,485.371 159.947,487.697 
	159.829,488.608 157.512,491.139 155.893,491.948 153.758,493.164 148.405,494.479 146.269,494.479 144.863,494.479 
	143.957,494.274 142.332,493.467 139.901,492.15 138.578,490.327 137.372,486.28 136.76,484.052 136.267,483.247 134.423,481.116 
	130.888,477.069 129.684,474.135 130.689,471.912 131.3,470.491 131.208,470.491 129.27,466.95 128.258,465.132 128.159,461.486 
	128.972,459.968 129.27,459.563 129.464,458.655 129.464,458.149 129.464,457.032 128.359,454.809 127.746,454.809 127.548,454.809 
	127.25,454.201 127.053,453.391 126.442,450.962 127.15,446.613 128.678,443.678 129.27,441.349 128.771,439.426 128.159,437.305 
	127.548,437.305 127.647,433.961 127.647,430.721 127.647,430.42 128.56,429.106 129.464,427.89 129.583,427.588 129.27,425.661 
	128.678,420.804 129.27,417.973 131.3,417.064 132.805,416.354 133.125,415.339 132.312,414.129 131.401,412.81 131.208,412.005 
	131.208,408.966 131.208,404.718 131.401,402.389 134.942,400.972 136.46,400.362 137.667,399.453 139.29,399.655 140.513,399.759 
	142.531,399.25 144.55,399.963 146.782,400.67 148.698,400.87 149.21,401.173 149.822,401.577 150.223,401.277 152.752,401.173 
	155.994,400.87 157.709,401.173 160.341,402.288 163.583,403.501 163.583,403.906 165.4,403.297 166.015,403.096 166.823,402.389 
	167.637,402.185 168.444,402.087 170.167,401.682 171.569,401.277 173.189,400.972 176.135,400.566 179.278,400.466 184.12,400.265 
	184.337,400.16 186.65,399.049 188.687,398.033 189.595,397.732 192.222,397.631 195.051,396.72 196.989,395.001 198.586,393.483 
	199.105,392.17 200.823,391.054 202.84,389.737 203.251,389.535 204.677,389.737 206.182,389.841 206.393,389.737 207.108,388.625 
	208.214,387.11 209.325,386.397 212.761,385.385 216.103,384.276 218.339,384.276 220.35,385.185 222.879,386.3 223.891,385.994 
	224.308,384.071 224.704,382.653 225.412,382.147 229.367,380.835 232.906,379.618 233.1,379.521 236.658,379.823 240.196,380.024 
	242.115,378.71 244.446,377.192 246.168,376.586 249.707,376.181 251.324,375.978 252.943,375.571 253.341,375.267 254.961,374.153 
	259.015,374.965 261.142,376.787 263.672,378.911 264.373,382.252 262.766,383.866 261.645,384.882 261.449,386.196 262.05,387.411 
	262.358,388.019 262.655,389.64 262.766,391.054 262.97,393.483 262.861,393.89 262.05,395.707 261.032,397.732 261.544,399.759 
	262.26,402.185 261.952,406.031 261.032,407.75 260.232,409.367 260.636,410.584 263.069,413.114 268.731,418.984 269.432,425.967 
	264.888,431.026 263.979,431.938 263.166,433.251 262.97,433.656 262.861,434.165 263.069,435.684 263.367,437.101 264.074,440.441 
	264.074,442.565 263.268,444.79 262.655,446.509 262.655,446.814 263.069,447.722 263.771,448.941 263.771,451.267 263.166,451.974 
	262.26,452.986 262.157,453.693 262.766,455.11 263.463,456.731 263.268,460.373 262.358,463.108 261.544,465.232 259.217,468.066 
	257.494,468.67 256.182,469.179 255.973,469.784 256.182,472.114 256.485,474.033 255.574,476.058 253.649,478.285 252.431,479.6 
	251.83,480.514 249.905,480.611 246.976,480.919 246.875,480.718 247.174,483.247 246.875,484.863 246.662,485.573 246.363,486.28 
	245.653,487.393 243.833,489.718 240.594,491.846 238.064,492.451 236.957,492.757 236.54,493.059 236.444,493.766 235.435,498.117 
	234.72,499.435 232.805,500.35 231.385,501.056 230.57,501.159 228.754,500.755 "/>
<polygon id="bto_0000651" fill="#808080" fill-opacity="0.5" stroke="#787878" stroke-width="0.5" points="194.758,518.857 
	188.993,518.355 185.445,518.255 176.341,518.151 173.714,517.139 168.049,510.869 163.691,506.109 163.09,504.893 162.276,500.645 
	160.855,492.957 160.144,491.132 156.099,484.655 152.663,478.986 152.258,477.776 150.834,468.768 147.098,457.13 149.922,455.916 
	151.246,455.408 152.058,454.198 153.977,453.281 159.036,452.681 161.864,453.891 164.5,455.006 167.239,455.811 169.057,455.811 
	171.28,455.811 171.787,453.994 177.559,451.26 178.775,450.751 185.048,449.136 190.308,452.172 193.847,454.198 194.558,456.015 
	197.187,456.015 200.43,456.015 202.66,455.609 204.171,458.242 206,461.479 206.813,463.198 210.25,461.885 213.693,460.572 
	217.734,460.669 219.463,462.696 221.381,464.924 222.584,463.808 226.243,464.519 230.376,465.328 236.563,468.866 
	236.563,472.814 236.563,476.561 229.781,480.704 223.503,485.466 220.469,487.791 217.426,489.818 217.525,492.349 
	217.846,498.821 221.48,504.085 221.674,505.503 221.992,507.423 220.974,508.739 220.974,511.269 220.974,514.203 220.264,515.319 
	218.14,517.744 215.61,520.582 215.31,520.681 210.25,520.582 207.306,520.479 201.948,519.974 198.411,519.366 "/>
<polygon id="bto_0000365" fill="#808080" fill-opacity="0.5" stroke="#787878" stroke-width="0.5" points="184.219,424.448 
	184.427,424.349 184.427,423.236 184.427,422.529 184.733,421.209 185.139,420.301 185.839,418.68 180.176,416.86 175.819,415.543 
	174.099,414.736 172.485,413.52 171.271,412.712 169.353,411.396 168.13,410.685 163.275,407.854 160.341,404.309 159.529,400.362 
	159.023,398.033 159.122,397.732 161.152,393.179 163.777,387.207 165.104,385.185 167.732,383.365 171.773,380.526 
	181.084,379.416 191.513,380.431 195.15,380.835 198.394,381.138 198.586,381.035 200.417,380.731 199.204,376.586 196.668,374.358 
	194.239,372.133 190.701,370.407 187.558,370.003 186.046,369.7 184.12,369.299 183.212,368.993 182.301,368.793 181.084,368.592 
	180.386,368.793 179.674,368.89 178.151,368.993 176.943,368.993 175.62,368.89 173.189,369.5 170.864,370.407 164.591,372.737 
	164.089,372.938 163.275,374.058 162.871,374.662 161.763,375.267 160.242,376.987 157.709,380.125 156.999,381.24 155.382,383.974 
	153.858,390.041 150.935,398.442 150.834,398.948 151.228,401.173 151.841,404.007 153.156,406.438 155.382,408.762 
	156.287,409.573 157.406,410.788 157.812,411.396 158.623,412.508 164.293,416.15 165.804,416.658 166.211,416.756 168.939,418.274 
	171.773,420.097 177.757,423.94 179.969,424.858 182.499,424.653 "/>
<polygon id="bto_0000759" fill="#808080" fill-opacity="0.5" stroke="#787878" stroke-width="0.5" points="147.288,456.621 
	147.08,455.006 147.08,447.012 147.08,441.849 147.386,434.769 147.693,431.324 148.392,424.951 144.145,423.839 135.643,421.712 
	125.62,412.705 125.62,407.14 125.62,404.409 128.865,400.359 134.024,396.513 138.271,393.376 134.638,390.949 128.153,386.698 
	119.453,376.681 115.905,369.594 113.375,364.434 112.675,361.904 112.37,357.25 112.159,353.909 112.465,351.078 112.873,350.57 
	113.375,350.067 116.21,349.558 119.245,349.256 123.702,348.954 125.826,349.256 131.089,351.078 134.73,352.288 139.389,353.505 
	141.513,353.81 147.288,354.616 150.722,356.644 156.9,363.218 162.467,369.091 164.591,360.186 165.696,355.224 166.915,349.354 
	167.22,347.132 167.932,342.373 169.244,341.463 175.216,341.463 180.683,341.463 184.522,343.49 189.893,349.052 192.215,351.484 
	196.982,355.126 200.518,357.147 204.053,359.174 207.393,361.402 208.008,362.105 209.519,363.932 210.038,363.623 
	211.243,360.285 211.854,358.668 213.674,355.733 215.389,353.909 218.425,350.57 224.704,351.078 228.149,351.38 234.933,352.288 
	239.779,353.002 247.372,354.111 249.194,354.721 253.748,357.552 260.834,362.005 268.631,370.509 270.354,375.567 
	271.161,377.789 271.764,381.94 271.764,384.772 271.764,389.125 271.261,391.048 268.631,396.211 265.185,402.991 258.811,409.972 
	253.548,412.705 251.724,413.616 247.775,415.033 244.839,415.845 238.974,417.359 232.805,420.498 231.996,422.422 
	231.787,423.126 231.077,426.771 230.57,430.617 228.951,443.266 228.855,443.567 222.879,445.595 216.103,447.923 205.577,448.731 
	203.453,447.112 201.734,445.796 200.417,440.94 200.417,435.271 200.417,431.224 197.174,435.271 192.521,441.037 191.513,441.849 
	184.219,444.683 175.116,448.324 166.409,452.778 161.043,456.621 155.686,460.468 151.329,460.977 148.698,458.139 "/>
<polygon id="bto_0000959" fill="#808080" fill-opacity="0.5" stroke="#787878" stroke-width="0.5" points="172.485,310.604 
	172.279,303.521 176.943,262.433 177.546,256.667 178.458,240.581 178.96,226.512 179.367,212.546 180.386,192.202 181.295,181.38 
	182.301,167.813 183.011,146.973 183.614,114.486 184.02,88.583 184.633,65.203 184.929,62.472 185.541,57.007 186.957,55.489 
	187.668,59.336 188.983,65.913 187.568,141.605 185.445,180.971 184.833,192.812 183.921,215.582 183.614,231.571 183.212,248.773 
	182.4,265.066 181.6,271.744 180.277,283.588 180.386,296.84 182.006,302.003 182.4,303.521 184.02,306.553 185.445,308.684 
	187.766,312.222 197.288,310.906 196.576,311.414 190.801,315.057 189.595,316.779 184.929,323.758 179.674,320.012 
	178.555,318.602 "/>
<path id="bto_0000975" fill="#808080" fill-opacity="0.5" stroke="#787878" stroke-width="0.5" d="M240.775,528.441l-0.313-0.429
	v-0.323l-0.119-0.532l-0.104-0.104H239.5h-0.646l-0.212-0.221l-0.115-0.212l-0.204-0.112v-0.743v-0.425v-0.222v-0.104l-0.103-0.104
	l-0.226-0.106l-0.529-0.323l-0.433-0.426l-0.104-0.432l-0.101-0.102l-0.115-0.221v-0.323v-0.532l0.115-0.106l0.205-0.207
	l0.433-0.429h-0.224l-0.414-0.541l-0.224-0.314l-0.104-0.32v-0.323v-0.211v-0.219l0.104-0.211l0.106-0.218l0.427-0.104l0.325-0.212
	l0.101-0.116v-0.204l0.104-0.222l-0.312-0.211l-0.117-0.217l-0.209-0.43l0.326-0.846l0.105-0.324l0.101-0.218l0.539-0.313h0.32
	h0.323l0.427-0.219l0.21-0.535l0.321-0.428l0.532-0.429l0.224,0.211h0.101l-0.219,0.113h0.119v-0.113l-0.224-0.314l0.428-0.752
	l0.754-0.208h0.211h0.854l0.102,0.104v0.104h0.323l0.222,0.106h0.429l-0.221-0.314l0.328-0.115l0.205-0.104h0.217v-0.104
	l0.107-0.104l0.428,0.104h0.221h0.413l0.435,0.324l0.323,0.43l0.104,0.207l0.112,0.104l0.313,0.115L247.09,514h0.639h0.104
	l0.326,0.22l0.426,0.211l0.323,0.425v0.324l0.102,0.637l0.214,0.116l0.11,0.104l0.316,0.104h0.216h0.323l0.313,0.324l0.227,0.323
	v0.418v0.321l-0.118,0.224v0.102l-0.208,0.211l0.101,0.324l0.227,0.323l0.423,0.321l0.107,0.428v0.637v0.323l-0.107,0.211
	l-0.113,0.219l-0.104,0.21l-0.101,0.219v0.313v0.221v0.21h0.101l0.104,0.114l0.222,0.53v0.314v0.324l0.105,0.319l-0.433,0.328
	l-0.323,0.207H250.5l-0.101,0.32l-0.107,0.211l-0.528,0.855l-0.114,0.218l-0.428,0.855l-1.063,0.535l-1.067,0.323l-0.752,0.208
	l-0.104,0.104l-0.217,0.323l-0.208,0.324l-0.647,0.104l-0.433,0.208l-0.205-0.104h-0.219l-0.316-0.104l-0.646-0.217h-0.431
	l-0.53,0.32l-0.43,0.22h-0.318l-0.317-0.22L240.775,528.441z M146.48,527.367l-0.53-0.433l-0.537-0.206l-0.854-0.325l-0.105-0.324
	l0.209-0.96l0.107-0.96l-0.107-0.428l-0.423-0.208l-0.864-0.324l0.12-1.818l0.958-0.96l0.637-0.646l-0.752-0.429l-0.206-0.96
	l-0.104-0.858l0.212-0.739l0.423-0.542l0.326-0.313l1.18-0.323l0.206-0.532l0.211-0.752v-1.063l1.607-0.22l1.065-0.104l0.428,0.64
	v-0.211v-0.753l2.673-0.207l0.854,0.854l0.323,0.532l0.751,0.323h0.428l0.958-0.221l1.5,0.64l0.103,0.541v0.314l0.323,0.425v0.325
	v0.428l0.105,0.639l0.543,0.321l1.063,0.535l-1.283,1.712l0.957,1.283l1.186,1.492l-1.922,1.607h-1.287h-0.75L156,524.378v0.847
	v1.284l-1.712,0.974l-1.283-0.429l-0.532-0.116l-2.892,1.392l-0.323,0.218l-1.065,0.636l-1.712-0.636v-0.531V527.367L146.48,527.367
	z"/>
<polygon id="bto_0001424" fill="#808080" fill-opacity="0.5" stroke="#787878" stroke-width="0.5" points="191.74,618.018 
	190.136,617.266 189.407,614.913 188.652,609.466 186.397,604.86 183.728,603.371 181.698,601.656 179.567,600.593 177.731,598.231 
	176.038,595.673 174.099,593.639 172.174,592.144 170.048,591.07 164.05,584.23 163.944,579.213 153.8,556.012 154.22,541.573 
	154.867,536.98 157.432,523.72 165.013,529.067 167.579,529.392 174.53,556.118 177.001,557.935 179.025,558.895 183.728,566.162 
	185.748,566.809 187.9,567.976 190.031,568.521 192.18,569.158 194.312,569.911 196.563,569.483 198.698,569.911 201.162,569.483 
	203.623,567.663 205.964,566.588 209.806,564.671 217.407,553.758 222.856,534.204 228.412,527.78 236.222,524.044 238.893,540.613 
	239.332,543.714 239.332,549.486 232.486,573.115 225.74,581.023 224.465,582.621 218.156,590.004 216.758,591.392 214.192,593.314 
	212.811,599.191 210.035,600.163 207.674,601.76 205.314,602.618 203.078,604.652 202.327,606.793 201.578,609.036 200.617,610.74 
	200.305,613.309 200.198,616.088 199.444,618.328 197.631,619.941 195.606,619.186 193.56,618.758 193.352,618.758 193.245,618.758 
	193.037,618.758 "/>
<polygon id="bto_0000243" fill="#808080" fill-opacity="0.5" stroke="#787878" stroke-width="0.5" points="188.317,635.045 
	188.317,630.659 188.545,628.52 188.756,626.921 189.175,623.705 189.407,621.578 189.924,617.618 192.807,617.618 194.414,617.618 
	196.879,618.255 198.153,617.618 199.444,616.974 200.406,617.829 200.719,617.829 201.366,617.829 202.542,632.904 
	201.804,634.823 200.617,637.613 191.218,639.315 188.652,635.575 "/>
<polygon id="bto_0001418" fill="#808080" fill-opacity="0.5" stroke="#787878" stroke-width="0.5" points="194.536,617.791 
	193.708,611.44 192.486,609.729 188.395,608.411 190.341,608.713 189.418,608.411 184.103,606.599 183.69,605.594 181.128,602.671 
	179.691,601.057 178.668,599.136 177.85,596.618 177.34,594.904 177.034,591.281 177.436,590.27 177.645,589.86 177.645,589.264 
	177.958,588.455 178.156,587.648 178.668,586.033 179.181,585.531 179.691,584.931 179.691,584.727 179.998,584.419 
	181.229,582.816 182.761,581.495 186.348,580.796 189.624,580.089 191.151,580.089 197.706,580.089 204.664,580.089 
	205.285,580.896 207.116,581.606 210.808,583.015 211.93,583.818 213.356,585.938 215.112,588.455 215.621,590.27 215.621,593.998 
	215.621,597.323 214.797,600.554 213.064,602.868 211.93,604.384 212.14,604.384 211.528,604.983 210.808,605.791 211.528,604.983 
	209.166,607 208.653,607.406 204.664,608.615 203.228,608.615 201.594,608.615 199.851,609.825 199.045,611.44 198.119,613.25 
	197.706,623.639 198.424,625.655 198.73,626.758 195.246,626.048 "/>
<path id="bto_0000671" fill="#808080" fill-opacity="0.5" stroke="#787878" stroke-width="0.5" d="M208.864,515.74l-1.877-3.822
	l0.358-3.605l0.192-2.019l1.257-2.304l2.762-2.859l2.749-2.972l1.03-3.046l-0.427-4.097l-0.354-3.576l0.273-0.785l2.872-3.056
	l1.972-2.339l2.457-0.864l3.253,0.319l4.782,0.475l3.387,2.354l2.325,4.481l1.225,2.257l0.039,0.605l-0.406,4.116l-0.545,5.518
	l-1.655,5.306l-2.159,3.029l-2.299,3.422l-5.421,4.016l-4.047,1.322l-3.729,1.252l-2.554-0.155l-2.535-1.357L208.864,515.74z
	 M157.795,516.366l-3.458-3.488l-1.275-2.854l-1.34-3.063l-0.97-5.771l0.349-3.511l0.347-3.517l2.767-4.997l3.318-3.513l2.651-2.782
	l1.262-0.38l2.645,1.479l2.917,1.713l4.028,6.06l0.63,3.815l0.148,0.728l1.082,1.625l1.188,1.432l2.778,3.104l0.918,2.131
	l0.459,3.784l0.587,5.426l-2.21,4.544l-3.825,1.242l-2.961,0.921l-5.59-0.647L160.915,518L157.795,516.366z"/>
<path id="bto_0001129" fill="#808080" fill-opacity="0.5" stroke="#787878" stroke-width="0.5" d="M204.825,575.616l1.015-0.612
	l1.443-1.713l2.551-3.119l1.025-3.131v-5.138v-2.521l-0.303-1.003l-1.23-2.226l-1.025-1.61v-0.102l-1.741-0.905l-1.829-0.808v-0.098
	l-0.12-0.809l-0.103-0.609v-0.298l0.318-0.399l1.527-0.907l1.534-1.016l1.229-0.295l1.939-0.401l1.34-1.32l1.12-0.794l0.719-0.405
	l0.818-0.405h0.203h0.621l0.712-0.401l1.021-1.013l0.729-0.604l0.194-0.099h0.917h1.034l1.624-0.608v-0.503v-0.208l1.229-0.4h0.62
	h0.819l1.024-0.798l0.718-1.017l0.71-1.104l0.521-0.306h1.122h0.719l0.403-0.203l0.926-0.701l0.915-0.609l0.318-0.197h0.717h0.916
	l0.923-0.306l1.02-0.903l0.813-0.609l0.514-0.102l0.938,0.612l1.012,0.499h0.318l1.522-0.608l1.229,0.404l1.231,1.308l2.148,2.326
	l0.41-0.604l0.5,0.396l1.231,0.809l1.644-0.102l1.429,0.404l1.855,0.303l-0.318-2.726l-0.717-2.113l1.13-2.118l1.537-2.718
	l-3.074-0.808l-1.842-1.014l-1.232-0.699l-1.32-2.922l-0.42-0.905l-0.719-3.133l-3.167,2.021l-0.718,0.5l-1.522,0.611h-1.036
	l-1.112,0.099l-0.412,0.503l-0.523,0.4l-0.605,0.609l-0.407-0.106l-1.643,0.503l-0.611,0.106l-0.916,0.604l-0.621,0.402
	l-0.513,0.503l-1.025,1.012l-2.35,1.312l-0.318,0.306l-0.915,0.197l-0.097,0.204l-0.208,0.102l-0.718,0.292l-0.816,0.21
	l-1.229,0.402l-0.31,0.098l-1.121,0.809L221,533.782l0.194,0.193l-1.229,0.306l-2.972,2.117l-1.332,0.609l-1.111,2.008l-1.446,1.112
	l-1.526,1.213l-0.521-0.207l-0.915,1.315l-0.817,1.104l-2.042,1.309l-1.543,1.016l-1.232,0.808l-0.915,0.806l-1.325,0.502
	l-1.139-1.111l-0.512-0.194l-1.425,0.194l0.209,2.729l-0.107,4.329l-0.208,4.038l0.105,5.039l-0.105,3.521l-0.099,3.524
	l-0.099,3.535l0.099,0.697l0.099,1.21l0.105,0.404l0.308,0.105h2.45l1.132-0.207L204.825,575.616z M193.352,575.911l-1.014-0.604
	l-1.446-1.709l-2.655-3.133l-0.919-3.12v-5.139v-2.521l0.308-1.015l1.225-2.212l1.029-1.619v-0.098l1.742-0.904l1.73-0.809
	l0.102-0.102l0.105-0.804l0.11-0.61v-0.305l-0.317-0.396l-1.529-0.913l-1.529-1.007l-1.23-0.305l-1.947-0.402l-1.327-1.311
	l-1.229-0.805l-0.712-0.404l-0.722-0.402h-0.31h-0.512l-0.721-0.404l-1.018-1.006l-0.72-0.601l-0.307-0.106h-0.924h-0.926
	l-1.63-0.601v-0.401v-0.31l-1.33-0.4h-0.514h-0.819l-1.023-0.809l-0.718-1.002l-0.717-1.116l-0.512-0.295h-1.232h-0.613
	l-0.399-0.208l-0.925-0.707l-0.916-0.601l-0.313-0.208h-0.72h-1.017l-0.824-0.295l-1.121-0.903l-0.71-0.609l-0.521-0.102
	l-1.024,0.604l-0.912,0.513h-0.318l-1.532-0.612l-1.221,0.401l-1.229,1.312l-2.146,2.325l-0.415-0.613l-0.5,0.405l-1.231,0.809
	l-1.646-0.098l-1.532,0.397l-1.743,0.31l0.314-2.726l0.719-2.121l-1.134-2.113l-1.534-2.719l3.06-0.808l1.755-1.013l1.326-0.701
	l1.33-2.922l0.412-0.915l0.71-3.118l3.18,2.018l0.72,0.503l1.524,0.6h1.033l1.112,0.106l0.412,0.504l0.512,0.401l0.621,0.604
	l0.402-0.102l1.643,0.503l0.613,0.099l0.915,0.608l0.513,0.404l0.618,0.504l0.916,1.002l2.368,1.319l0.397,0.295l0.927,0.208
	l0.1,0.194l0.206,0.098l0.72,0.309l0.815,0.204l1.23,0.404l0.307,0.099l1.123,0.812l1.634,1.207l-0.193,0.196l1.216,0.306
	l2.978,2.118l1.334,0.6l1.111,2.019l1.45,1.112l1.524,1.213l0.513-0.207l0.917,1.308l0.817,1.111l2.043,1.312l1.55,1.005
	l1.229,0.809l0.913,0.106l1.328,0.401l0.722-0.609l0.611-0.193l2.048,0.099l0.206,0.097l-0.308,2.424l0.209,4.33l0.099,4.033
	l-0.206,5.444l-0.102,3.525l-0.205,3.531l0.307,3.724l-0.102,0.707l-0.105,1.21l0.72,0.207l-0.404,0.099l-0.827,0.197h-2.34
	l-1.137-0.197L193.352,575.911z"/>
<path id="bto_0001234" fill="#808080" fill-opacity="0.5" stroke="#787878" stroke-width="0.5" d="M240.024,535.895l-22.816,8.268
	L217,544.263l-0.206,0.194l-0.192,0.109l-5.229,3.826h-0.513l-0.814,0.295l-0.512,0.405l-0.513,0.302l-1.023,0.613l-0.722,0.295
	l-0.915,0.405l-0.729,0.703l-0.404,0.908l-0.208,0.306l-0.098,0.305l-0.206,0.198l-2.669,1.613l-0.5,0.401l-0.308,0.602v0.71v0.306
	l-0.611,0.809l-0.729,0.601l-1.531,1.52l-1.327,3.618l-0.31,3.633l-0.31,4.136l0.92,1.505l2.761-0.295l0.11-0.106h0.103l2.558-0.809
	h0.103l0.097-0.101h0.12l3.365-2.617l0.606-0.401l0.832-0.504l0.608-0.4l1.124-0.612l1.437-1.101l0.514-0.612l0.313-0.4l0.608-0.504
	l0.512-0.305l3.071-1.604l13.299-6.457l5.427-1.408l4.508-2.215l1.425,0.101l0.618,0.306l0.515,0.602l0.306,1.002l0.406,1.115
	l2.652,2.42h0.926h0.718l1.844,1.508v0.609v0.098v0.102l-1.729,3.323l-1.758,7.266l-2.241,1.714l-0.926,0.807l-0.712,1.104
	l-0.092,1.012l-0.118,0.604l0.118,0.602l0.4,0.405l1.536,1.012h5.106l1.438-0.499l1.741-1.52l2.563-2.521l0.815-0.5l0.816-0.608
	l0.109-0.296l0.096-0.404l0.611-0.904l0.609-0.707l1.134-1.312v-0.204l-0.21-1.617v-0.099l0.933-2.423l0.205-2.715l0.308-0.908
	l-0.101-1.012l-0.621-0.809l-0.308-0.404l-0.1-0.391v-0.611v-1.007v-0.106v-0.097v-0.198l0.405-2.521l-1.236-3.826l-1.633-1.52
	l-0.717-0.711l-0.404-0.804v-0.604v-2.322l-0.414-0.903l-1.731-1.104l-0.826-0.712l-0.819-0.706v-0.197v-1.013l-1.426-0.904
	L248,538.218h-1.741l-2.044-0.905v-0.811V535.9l-1.435-0.306h-1.325L240.024,535.895z M150.365,535.087l-1.532,0.305v0.601v0.809
	l-1.938,1.012l-1.743-0.105l-1.635-0.098l-1.537,0.904v1.013v0.197l-0.718,0.809l-0.915,0.601l-1.646,1.111l-0.5,0.905v2.32v0.604
	l-0.415,0.805l-0.719,0.711l-1.537,1.508l-1.231,3.837l0.313,2.521v0.198l0.099,0.098v0.098v1.017v0.604l-0.099,0.398l-0.313,0.405
	l-0.703,0.808l-0.112,1.016l0.412,1.003l0.212,2.62l0.913,2.42v0.098l-0.31,1.617l0.103,0.307l1.021,1.209l0.722,0.701l0.616,1.012
	l0.103,0.295l0.099,0.402l0.71,0.513l0.923,0.502l2.465,2.617l1.729,1.411l1.438,0.513h5.116l1.635-1.016l0.315-0.405l0.195-0.6
	l-0.096-0.61l-0.199-1.005l-0.62-1.112l-0.915-0.808l-2.264-1.709l-1.733-7.259l-1.743-3.324v-0.102v-0.098v-0.609l1.743-1.508
	h0.819h0.915l2.667-2.421l0.305-1.111l0.414-1.005l0.412-0.609l0.613-0.295l1.534-0.106l4.397,2.223l5.424,1.41l13.412,6.443
	l3.066,1.615l0.513,0.305l0.512,0.503l0.404,0.405l0.513,0.608l1.425,1.101l1.139,0.609l0.618,0.404l0.705,0.502l0.72,0.406
	l3.378,2.613h0.101l0.107,0.101h0.101l2.555,0.809l0.111,0.099h0.103l2.753,0.308l0.926-1.508l-0.308-4.132l-0.307-3.637
	l-1.338-3.629l-1.636-1.508l-0.704-0.609l-0.513-0.809v-0.295v-0.707l-0.321-0.604l-0.506-0.402l-2.661-1.614l-0.191-0.208
	l-0.219-0.295l-0.1-0.306l-0.515-0.904l-0.611-0.71l-0.924-0.402l-0.818-0.305l-1.021-0.601l-0.506-0.306l-0.414-0.405l-0.82-0.295
	h-0.515l-5.313-3.837l-0.221-0.102l-0.101-0.193l-0.193-0.11l-22.83-8.257L150.365,535.087z M264.6,620.811l1.018-0.711l0.717-0.499
	l2.254-1.821l0.413-0.198l1.635,0.102h2.656l3.479-1.104l0.31-1.111l0.212-0.809l-0.107-1.111l-0.414-1.408l-1.429-4.639
	l0.721,4.639l-0.721-4.639l-0.721-4.631l-0.509-1.313l0.509-4.635l0.208-2.018l-0.915,2.215l4.19-5.139l1.939-1.813l0.108-1.713
	l0.206-2.226l0.513-2.314l1.634-5.747l3.068-3.119l2.869-0.401l2.043-3.022l1.025-1.516v-4.331l0.915,0.502l0.728,0.305l1.429-1.111
	l1.025,0.401l2.562,1.007l1.532,0.808l0.404,1.209l0.209,0.602l0.205,1.013v0.604v1.111l0.096,0.306l0.621,1.005l0.512,0.809
	l0.31,0.307l0.707,0.193l0.936,0.306l1.941,0.503l0.303-0.402v-0.197l0.817-0.306v-0.401v-0.404l0.204-1.006l0.407-1.108
	l-0.198-2.828l-0.109-5.332v-3.534l-1.219-1.005l-0.928-1.819l-0.411-0.904l-3.07-2.62l-1.121-0.5l-0.404-0.102l-0.621-0.509
	l-0.308-0.405l-1.633-1.909l-1.645-0.809l-1.636,0.404l-0.608,0.099h-0.521l-0.403-0.099l-0.717-0.309l-1.951,0.711l-1.527,0.907
	l-1.533,0.904l-1.328,3.229l-0.621,4.333l-0.414,2.922l-1.121,1.917l-3.17,3.123l-4.195,4.135l-0.717,1.108l-1.328,4.431
	l-1.03,3.535l-0.605,1.406l-1.644,2.019l-2.244,2.814l-0.926,1.615l-0.521,1.92l-0.198,1.002l-0.204,1.417l-0.101,0.908
	l-0.109,1.505l0.209,1.21l1.229,3.327l0.513,1.516l0.105,1.909l-0.413,1.312l-0.513,1.822l-1.634,2.313l-3.069,2.922l-3.38,3.429
	l0.2,2.114l0.509,1.92v-0.102l2.563,2.824l1.435-0.914L264.6,620.811z M131.644,621.105l-1.021-0.697l-0.725-0.514l-2.248-1.813
	l-0.414-0.098h-1.63h-2.562l-3.479-1.112l-0.313-1.104l-0.305-0.808l0.112-1.112l0.397-1.406l1.438-4.636l-0.718,4.636l0.718-4.636
	l0.718-4.541l-0.517-1.403l0.517-4.646l-1.13-1.407l1.842,1.615l-4.203-5.04l-1.94-1.92l-0.096-1.712l-0.206-2.217l-0.418-2.313
	l-1.729-5.75l-2.974-3.129l-5.023-3.425l-1.938-5.336l-0.72,0.393l-1.426-1.198l-1.024,0.404l-2.558,1.003l-1.537,0.808
	l-0.404,1.312l-0.214,0.502l-0.101,1.013v0.696l-0.098,1.017l-0.102,0.295l-0.618,1.017l-0.512,0.903l-0.305,0.194l-0.71,0.208
	l-0.827,0.305l-2.045,0.503l-0.206-0.401l-0.103-0.206l-0.718-0.198v-0.402v-0.401l-0.307-1.114l-0.402-1.101l0.196-2.823
	l0.107-5.35l0.099-3.521l1.229-1.017l0.817-1.712l0.513-1.003l3.071-2.62l1.015-0.401l0.412-0.207l0.621-0.503l0.412-0.402
	l1.526-1.909l1.634-0.809l1.643,0.405l0.609,0.098h0.623l0.305-0.098l0.708-0.207l2.058,0.608l1.425,0.904l1.636,0.907l1.23,3.229
	l0.618,4.326l0.42,2.926l1.112,1.91l3.272,3.13l4.201,4.231l0.714,1.112l1.229,4.43l1.025,3.426l0.604,1.418l1.649,2.007
	l2.242,2.828l0.925,1.611l0.513,1.92l0.206,1.005l0.306,1.516v0.806l0.206,1.607l-0.305,1.108l-1.132,3.327l-0.618,1.519
	l-0.102,1.906l0.411,1.312l0.514,1.921l1.729,2.212l2.976,3.024l3.482,3.323v2.326l-0.519,2.007v-0.393l0.118-0.309l-2.974,3.221
	l-1.437-0.904L131.644,621.105z M156.234,518.602h-0.101l-0.617-0.401l-0.93-0.502l-1.429-0.904l-0.813-0.604l-0.417-0.405
	l-0.404-0.201l-1.13-0.404l-0.817-0.306l-1.122-0.503l-0.718-0.298l-1.025-0.506l-0.204-0.205l-1.741-1.41l-1.735-1.512l-0.61-1.013
	l-0.313-0.598l-0.502-0.808l-0.216-0.306l-0.196-0.303l-0.108-0.305v-0.099l0.108,0.099l0.196,0.104h0.097l0.722,0.098l0.824,0.104
	l1.333,0.099l1.729-0.299l2.877-0.605l2.961-1.01l1.646-0.702l1.328-0.604v-0.102l1.124-1.01l0.62-0.604l0.913-0.907l0.415-0.507
	l0.72-0.808v-0.098v-0.405v-0.506l0.511,0.809l0.305,0.506l0.609,0.809l0.513,0.601l0.817,1.111l0.414,1.312l0.501,1.308
	l0.219,1.614l0.194,1.109l0.208,0.2l-0.208,0.904l-0.099,1.719l0.402-1.012l0.108,0.707l0.107,0.904l-0.107-0.904v2.521v0.604
	l-0.827,1.21l-0.293,0.503l-0.208,0.506l-0.209,0.604l-0.105,0.306l-0.298,0.298l-0.313,0.307l-0.306,1.311l-0.706,3.225
	l-3.692,4.336l2.241-7.962l-1.216-0.098L156.234,518.602z"/>
<path id="bto_0001363" fill="#808080" fill-opacity="0.5" stroke="#787878" stroke-width="0.5" d="M256.318,614.717l1.948-0.609
	l3.479-1.002l1.946-0.613l2.259-1.104l1.012-0.903l2.366-2.019l3.068-4.745l0.502-2.521l0.217-0.904l0.611-2.008l0.5-1.614
	l0.827-2.521l0.502-2.725l0.934-5.35l0.198-0.903v-1.907l-0.101-1.213l-0.303-4.231l-0.209-2.215l-0.303-0.405l-0.098-0.302
	l-0.622-0.102h-0.61h-1.133l-1.938-1.013l-0.72-0.904l-0.411-0.604l-0.819-2.521l-0.096-1.21l-0.101-1.209l-2.362-1.214l-2.76-0.306
	l-2.046-0.295l-0.101,0.101l-0.717,0.905l-0.513,0.499l-0.218,1.411v0.302v0.309l-0.503,0.099l-0.408,0.808l-0.724,1.308
	l-0.613,0.612l-2.146,1.309l-1.435,0.907l-1.636,1.308l-0.521,0.503l-1.529,1.713l-1.745,5.651v3.521v1.811l-0.506,0.918
	l-2.146,2.521l-1.536,1.811l-0.412,0.707l-0.413,1.411l-0.506,2.321l-0.716,0.601l0.917,4.034l0.815,3.429l-1.109,1.101l1.012,2.018
	l0.31,0.612l0.716,2.409l0.304,0.808l0.414,1.521l2.24-0.613l1.231,0.309l1.436,0.307l2.979,0.193l1.12-0.193L256.318,614.717z
	 M139.389,614.717l-1.841-0.609l-3.477-1.002l-1.948-0.613l-2.249-1.104l-1.028-0.903l-2.356-2.019l-3.06-4.745l-0.514-2.521
	l-0.206-0.904l-0.604-2.008l-0.525-1.614l-0.806-2.521l-0.625-2.725l-0.824-5.35l-0.195-0.903v-1.907l0.096-1.213l0.316-4.231
	l0.194-2.215l0.206-0.405l0.206-0.302l0.506-0.102h0.618h1.229l1.943-1.013l0.718-0.904l0.412-0.604l0.819-2.521l0.093-1.21
	l0.101-1.209l2.361-1.214l2.762-0.306l2.042-0.295v0.101l0.83,0.905l0.401,0.499l0.317,1.411v0.302v0.309l0.513,0.099l0.397,0.808
	l0.715,1.308l0.619,0.612l2.155,1.309l1.427,0.907l1.635,1.308l0.513,0.503l1.537,1.713l1.743,5.651v3.521v1.811l0.412,0.918
	l2.244,2.521l1.534,1.811l0.415,0.707l0.414,1.411l0.513,2.321l0.718,0.601l-0.936,4.034l-0.808,3.429l1.12,1.101l-1.021,2.018
	l-0.306,0.612l-0.827,2.409l-0.196,0.808l-0.4,1.521l-2.366-0.613l-1.121,0.309l-1.438,0.307l-2.977,0.193l-1.111-0.193
	L139.389,614.717z"/>
<polygon id="bto_0000408" fill="#808080" fill-opacity="0.5" stroke="#787878" stroke-width="0.5" points="191.93,633.261 
	191.709,633.261 191.609,633.057 191.609,632.762 191.609,632.456 191.609,632.151 191.609,631.146 191.609,630.24 191.516,628.932 
	192.121,630.135 192.121,626.913 192.233,621.469 192.335,617.739 192.442,616.429 192.442,614.913 192.442,613.703 
	191.417,611.389 191.31,610.781 191.31,610.18 191.21,609.274 191.21,608.871 191.31,608.259 191.31,608.161 191.417,608.064 
	191.417,607.964 191.609,607.857 192.335,607.757 193.146,607.857 193.978,607.857 194.489,607.757 194.683,607.757 
	194.789,607.857 194.888,607.857 195.196,607.857 195.807,607.857 196.832,607.857 197.962,607.757 198.475,607.857 
	198.781,607.857 198.987,607.964 199.092,607.964 199.293,608.064 197.962,613.703 197.756,622.474 197.756,625.299 
	199.092,629.129 199.092,630.439 198.987,632.762 198.987,633.057 198.68,633.261 198.573,633.459 198.269,633.261 197.856,633.261 
	196.12,633.261 196.12,633.361 193.146,633.261 "/>
<polygon id="bto_0000988" fill="#808080" fill-opacity="0.5" stroke="#787878" stroke-width="0.5" points="200.479,436.764 
	201.81,436.163 201.911,435.955 202.322,434.853 201.197,432.431 199.561,430.313 196.383,426.579 196.906,423.557 201.503,419.02 
	205.189,415.19 207.954,414.382 213.588,415.082 219.124,415.789 220.648,415.689 224.337,414.077 234.775,409.74 239.995,404.396 
	243.373,394.815 245.528,388.771 245.828,385.638 244.503,384.133 243.991,383.522 242.361,381.408 240.923,379.495 
	239.483,377.478 237.85,375.556 237.238,375.052 235.387,373.744 232.216,373.034 229.656,373.44 228.021,373.646 226.789,373.547 
	225.768,373.034 224.026,372.13 222.39,372.531 220.029,374.247 218.598,375.36 218.195,376.168 217.271,378.992 216.657,380.802 
	215.632,383.229 214.916,384.233 214.298,385.235 213.478,386.556 213.077,387.256 211.952,389.078 207.954,390.787 204.578,390.89 
	202.936,390.985 199.048,390.787 195.87,390.386 191.167,389.873 188.705,389.873 183.377,390.584 176.732,391.392 172.839,394.118 
	168.545,397.239 167.521,398.757 164.963,406.012 163.624,410.039 163.523,410.75 163.938,413.169 164.646,416.597 166.182,420.122 
	167.621,421.443 171.915,425.467 175.084,427.793 177.449,428.492 179.181,429.002 180.317,429.603 180.716,430.313 
	181.341,431.119 182.353,431.526 185.839,432.531 188.299,433.238 191.372,433.838 192.59,433.838 194.638,433.936 195.051,434.146 
	195.663,434.95 195.984,435.55 196.175,436.455 196.076,437.165 195.87,438.281 198.844,437.372 "/>
<polygon id="bto_0000156" fill="#808080" fill-opacity="0.5" stroke="#787878" stroke-width="0.5" points="182.858,183.699 
	177.494,183.089 173.045,182.181 169.09,181.373 164.744,180.559 163.429,180.456 158.567,179.751 156.552,178.133 156.552,174.796 
	156.552,172.769 158.776,170.943 164.94,168.015 173.045,164.068 174.149,163.662 181.644,161.635 188.826,159.712 189.442,159.615 
	196.319,159.615 202.999,159.615 203.813,159.712 208.358,161.133 211.095,162.044 214.942,163.559 216.965,164.574 
	222.834,167.612 232.45,173.473 233.055,174.488 234.871,177.122 232.552,181.675 228.708,183.193 226.68,184 224.653,184.104 
	210.484,184.205 201.685,184.308 191.26,184.205 187.305,184 "/>
<path id="bto_0001456" fill="#808080" fill-opacity="0.5" stroke="#787878" stroke-width="0.5" d="M131.451,485.47l-14.935-12.749
	l-4.125-2.35l-3.671-1.733l-10.487-5.364l-1.341-1.527l-4.722-5.863l-1.004-3.351l2.396-2.329l1.451-1.414l3.697,1.185l8.724,4.769
	l11.544,6.201l1.474,0.938l6.302,3.665l9.102,6.594l7.135,7.013l4.192,4.396l10.375,7.379l0.801,0.966l0.667,2.81l2.29,3.658
	l3.045,8.504l1.446,2.94l4.134,8.606l6.125,14.711l-0.076,1.372l0.066,0.646l-5.757,0.605l-5.223-3.183l-2.757-1.68l-2.249-2.167
	l-2.496-12.383l-3.13-9.647L140.117,491.9l-4.103-4.509L131.451,485.47z M260.459,485.47l14.938-12.749l4.124-2.35l3.669-1.733
	l10.487-5.364l1.343-1.527l4.719-5.863l1.002-3.351l-2.392-2.329l-1.45-1.414l-3.699,1.185l-8.723,4.769l-11.544,6.201l-1.475,0.938
	l-6.305,3.665l-9.104,6.594l-7.135,7.013l-4.19,4.396l-10.375,7.379l-0.805,0.966l-0.667,2.81l-2.29,3.658l-3.045,8.504l-1.446,2.94
	l-4.135,8.606l-6.123,14.711l0.078,1.372l-0.066,0.646l5.755,0.605l5.223-3.183l2.757-1.68l2.248-2.167l2.499-12.383l3.131-9.647
	l14.32-14.785l4.107-4.509L260.459,485.47z"/>
<path id="bto_0000817" fill="#808080" fill-opacity="0.5" stroke="#787878" stroke-width="0.5" d="M242.003,260.691l-12.857-8.805
	l-1.717-5.257l-4.041-12.859l12.646-15.379h14.567h4.764l10.01,2.326l7.283,2.737l11.94,4.553l1.425,1.219v6.166v3.843l1.62,11.03
	l2.014,4.664l5.771,13.855v-2.419l-19.525-0.208l-9.713-0.102l-11.141-2.124l-3.43-0.811L242.003,260.691z M99.41,255.629
	l1.214-8.192l0.702-6.58l1.422-12.036l14.667-5.169l20.241-7.283l9.825,0.404l7.688,8.096l19.526,20.742l-16.088,17.104
	l-40.678,1.622l-20.954,0.811l1.521-6.175L99.41,255.629z"/>
<polygon id="bto_0001385" fill="#808080" fill-opacity="0.5" stroke="#787878" stroke-width="0.5" points="183.603,99.879 
	185.531,43.71 194.127,43.71 198.179,43.71 201.116,55.146 201.622,73.265 202.334,95.52 198.895,112.222 193.835,112.222 
	193.626,112.222 192.716,111.314 191.812,110.195 "/>
<path id="bto_0000439" fill="#808080" fill-opacity="0.5" stroke="#787878" stroke-width="0.5" d="M214.666,83.78l-2.724-3.735
	l-0.618-3.24l-0.712-3.847l3.049-6.478l2.941-0.71l5.851-1.421l5.381,5.061v7.086v6.988l-4.766,3.733l-5.872-2.419L214.666,83.78z
	 M158.51,75.99l6.365-12.35l8.603,2.131l2.941,0.814l3.022,6.373l-0.692,3.939l-0.808,4.354l-3.662,3.548l-4.028,0.604l-3.141,0.415
	l-0.521-0.211l-2.011-2.432L158.51,75.99z"/>
<path id="bto_0001203" fill="#808080" fill-opacity="0.5" stroke="#787878" stroke-width="0.5" d="M212.305,162.212l-2.402-3.155
	l-0.762-3.106l-0.889-3.691l1.733-7.135l2.168-1.344l4.317-2.682l4.536,3.908l0.638,7.086l0.627,6.986l-3.279,4.764l-4.678-1.158
	L212.305,162.212z M170.959,144.829l8.197-4.745l2.791,8.29l0.921,2.898l-1.497,7.305l-2.037,2.546l-2.261,2.772l-3.149-0.045
	l-2.014-2.63l-1.547-2.092l-0.131-0.564l0.199-3.446L170.959,144.829z"/>
<path id="bto_0001388" fill="#808080" fill-opacity="0.5" stroke="#787878" stroke-width="0.5" d="M199.979,235.281l1.214-0.401
	l1.105-0.814l0.712-0.608v-0.099l-0.196-1.722l-0.108-1.213l-0.297-0.911l-0.503-0.811l-0.922-1.313l-0.096-0.405l0.707-1.617
	l0.703-1.723l-0.197-2.834l-1.011-0.912l-0.71-0.6v-0.11l0.604-0.701l0.712-0.907l-0.196-3.746l-0.919-1.02l-0.506-0.6v-0.21
	l0.308-0.402l0.604-0.603l0.308-5.061l-0.503-0.603l-0.308-0.406v-0.208l0.611-0.506l0.908-0.808v-1.723l-0.908-0.808l-0.405-0.405
	l-0.206-0.405l0.099-0.308l0.107-0.195l0.297-0.811l0.209-0.713l0.604-1.619l0.108-2.226l-0.516-1.511l-0.3-0.918v-0.298l0.3-0.305
	l0.405-0.506v-3.145l-0.405-0.808l-0.101-0.298l-0.402-0.306h-0.201h-0.513l0.404-0.603l0.613-0.812l0.402-4.456l-0.505-1.719
	l-0.303-1.216v-0.195l0.404-0.512l0.604-0.606l0.108-2.332l-0.516-1.414l-0.3-0.706v-0.299l0.3-0.208l0.516-0.404l-0.108-1.317
	l-0.706-0.502l-0.609-0.405v-0.101l0.407-0.302l0.609-0.309l0.098-3.843l-0.611-0.603l-0.297-0.405l0.102-0.208l0.71-0.912
	l1.008-1.311v-1.009l-0.911-1.316l-1.017-1.213v-0.812l0.919-0.613l0.407-0.298l0.293-0.608l0.101-0.813l0.109-1.108l-0.109-0.107
	l-1.008-0.807l-0.604-0.507l-0.513-0.506v-0.097v-0.208l0.404-0.6l0.613-0.613l0.809-0.908l0.101-0.409v-1.105l-0.101-0.918
	l-0.204-0.604l-0.405-0.405l-0.299-0.308l-0.304-0.402v-0.2v-0.306l0.604-1.009l0.809-1.115l1.218-1.216l0.205-0.701l0.103-0.612
	l-0.307-1.217l-0.099-1.005l-0.209-0.911l-0.099-0.106v-0.097l-0.604,0.097l-0.61,0.205l-0.813,0.308l-1.313,0.198l-1.618,0.101
	l-2.53,0.11v49.572v39.361l-0.198,10.009h0.305l0.299-0.095h1.115l1.011-0.101L199.979,235.281z M191.273,235.281l-1.317-0.401
	l-1.005-0.814l-0.71-0.608v-0.099l0.204-1.722l0.101-1.213l0.309-0.911l0.502-0.811l0.91-1.313l0.099-0.405l-0.71-1.617
	l-0.702-1.723l0.2-2.834l0.908-0.912l0.712-0.6v-0.11l-0.506-0.701l-0.71-0.907l0.208-3.746l0.908-1.02l0.404-0.6l0.104-0.21
	l-0.313-0.402l-0.602-0.603l-0.31-5.061l0.506-0.603l0.31-0.406v-0.208l-0.604-0.506l-0.908-0.808v-1.723l0.908-0.808l0.402-0.405
	l0.201-0.405l-0.101-0.308l-0.102-0.195l-0.305-0.811l-0.206-0.713l-0.605-1.619l-0.099-2.226l0.506-1.511l0.306-0.918v-0.298
	l-0.306-0.305l-0.407-0.506v-3.145l0.407-0.808l0.095-0.298l0.407-0.306h0.206h0.506l-0.404-0.603l-0.715-0.812l-0.303-4.456
	l0.514-1.719l0.295-1.216v-0.195l-0.506-0.512l-0.502-0.606l-0.099-2.332l0.506-1.414l0.306-0.706v-0.299l-0.306-0.208l-0.506-0.404
	l0.099-1.317l0.713-0.502l0.504-0.405l0.101-0.101l-0.506-0.302l-0.611-0.309v-3.843l0.611-0.603l0.305-0.405l-0.107-0.208
	l-0.699-0.912l-1.021-1.311l-0.096-1.009l1.005-1.316l1.019-1.213v-0.812l-0.908-0.613l-0.407-0.298l-0.308-0.608l-0.098-0.813
	l-0.099-1.108l0.099-0.107l1.005-0.807l0.613-0.507l0.506-0.506v-0.097v-0.208l-0.404-0.6l-0.611-0.613l-0.802-0.908l-0.106-0.409
	v-1.105l0.106-0.918l0.195-0.604l0.407-0.405l0.306-0.308l0.295-0.402v-0.2v-0.306l-0.602-1.009l-0.813-1.115l-1.215-1.216
	l-0.196-0.701l-0.106-0.612l0.305-1.217l0.101-1.005l0.209-0.911l0.099-0.106v-0.097l0.611,0.097l0.602,0.205l0.813,0.308
	l1.313,0.198l1.624,0.101l2.53,0.11v49.572v39.361l0.192,10.119l-0.297-0.109h-0.206l-1.313-0.095l-0.906-0.101L191.273,235.281z"/>
<path id="bto_0000763" fill="#808080" fill-opacity="0.5" stroke="#787878" stroke-width="0.5" d="M234.266,346.781l-0.196-0.503
	l3.133-7.086l1.009-2.432l1.114-4.148l0.407-2.728l0.71-4.355l-0.109-0.912l-1.412-3.239l-0.908-2.019l-2.331-3.95l-2.019-2.828
	l-2.022-2.835l-2.027-3.647l-0.603-1.511l-1.325-3.646l0.107-7.993l1.412-9.405l2.737-18.21l-1.213-7.492l-7.493-13.258l-3.84-6.878
	l-0.104-0.306l0.407-4.557l0.198-2.63l0.404-4.55l0.198-2.938l0.611-7.381l3.743-7.181h3.234h1.729l0.91,0.808l2.321,3.636
	l3.548,5.672l5.06,11.234l3.438,10.316l3.748,10.722l4.65,10.829l4.655,8.604l5.463,9.914l0.407,0.908l2.419,10.93l1.215,5.265
	l1.315,5.763l0.402,1.622l1.117,4.456l-0.198,16.793l-1.213,4.142l-1.218,3.954l-6.581,11.334l-4.445,5.76l-2.528,3.34l-1.02,0.613
	l-2.728,0.295l-2.737,0.309l-1.313-0.406l-4.045-2.729L234.266,346.781z M138.643,362.365l-1.513-3.954l-1.618-4.041l-2.938-7.391
	l-1.818-9.208l-0.106-7.689v-4.04l-0.196-0.309l-4.96-5.669l-6.068-7.077l-0.809-1.619l-0.712-7.184l-0.503-6.376l0.604-2.53
	l3.341-4.761l2.332-3.232l1.005,2.728l0.506,1.414l1.116,3.746l0.811,3.045l0.91,3.032l1.928,5.662l1.512,3.95l3.24,8.192
	l0.098,1.521l-2.022,3.844l-0.702,1.511l-0.407,1.216h0.407h0.407l1.005-1.313l0.912-1.723l1.521-2.935l2.937,3.946l4.852,6.48
	l15.079,10.625l8.903,3.237l2.124,0.813l3.033,1.203l1.522,0.613l1.523,0.713l2.825,0.502h2.022h2.127l1.42,0.406v0.502v2.322
	l-4.856,5.672l-3.749,2.026l-3.646,2.015l-1.72,0.208l-11.023,0.603l-6.78,0.406l-7.283,0.516l-2.124,0.295l-3.243,0.402
	l-0.604-0.098l-0.401-1.414L138.643,362.365z M176.184,347.482l-1.622-0.811l-0.604-0.604l-0.813-0.807h-0.503l-0.611,0.608
	l-2.123,2.53l-22.868-13.972l-6.679-7.991l-3.34-4.041l-4.141-8.607l-2.738-8.598l-1.313-3.939l-1.816-5.772l-1.02-2.935
	l-2.022-6.276l0.104-5.157l2.53-18.012l2.127-15.376l1.104-2.121l12.854-15.485l4.15-4.958l2.226-1.918l3.033-1.315l6.373-2.835
	l1.019-0.208l1.317,1.622l1.62,1.923l-0.108,0.813l-2.53,5.255l-1.61,3.341l-1.325,1.523l-2.123,1.005l-2.938,1.521l0.309-0.308
	l2.432-0.808l1.116-0.305l-1.02,2.332l0.405,3.636l0.308,2.429v4.151l-0.206,2.734l-0.908,3.233l0.4,1.521l1.02,3.538l5.562,4.557
	l5.764,6.982l1.115,1.92l1.819,5.564l1.213,3.542l1.622,6.574l0.811,4.456l3.344,17.708l5.06,11.332l9.405,10.822l6.58,7.488
	l0.811,1.927l-2.431,3.341l-2.53,3.438l-9.91,1.917l-6.382-1.815L176.184,347.482z"/>
<path id="bto_0000784" fill="#808080" fill-opacity="0.5" stroke="#787878" stroke-width="0.5" d="M195.108,168.102l0.305-3.045
	l-1.814-1.719l-2.851-2.729l-4.448,2.627v4.459v4.543l3.243,1.217l3.34-3.23L195.108,168.102z M190.255,148.876l0.813-1.618v-2.027
	v-3.438l-3.042-4.151h-2.536h-2.53l-3.027,4.151v3.438v2.936l3.229,4.358h2.33h0.52l1.512-1.019l1.211-1.216L190.255,148.876z
	 M181.24,138.758l-3.24-7.284l-3.243-1.119l-4.446-1.411l-1.106,6.068l3.94,4.249l1.817,1.926l3.138,0.704l1.225-1.206
	L181.24,138.758z M196.937,168.102l-0.318-3.045l1.83-1.719l2.837-2.729l4.447,2.627v4.459v4.543l-3.243,1.217l-3.341-3.23
	L196.937,168.102z M200.061,149.788l-0.807-1.622v-2.019v-3.446l3.036-4.143h2.53h2.628l3.044,4.143v3.446v2.925l-3.339,4.359
	h-2.333h-0.5l-1.524-1.018l-1.22-1.106L200.061,149.788z M206.245,136.938l3.23-7.391l3.233-1.005l4.564-1.428l1.007,6.081
	l-3.954,4.246l-1.818,1.92l-3.128,0.71l-1.219-1.216L206.245,136.938z"/>
<polygon id="bto_0001281" fill="#808080" fill-opacity="0.5" stroke="#787878" stroke-width="0.5" points="228.522,404.412 
	231.97,404.412 236.418,400.768 238.751,398.948 240.568,397.229 241.382,396.924 243.811,395.008 245.627,391.865 248.255,387.517 
	250.088,380.53 249.979,375.679 249.777,370.924 248.255,367.681 244.317,364.136 242.595,362.524 240.667,360.598 240.065,359.884 
	238.544,357.971 234.096,356.951 231.566,357.869 229.946,358.372 229.642,358.778 228.928,360.805 227.919,363.938 
	228.228,365.251 231.458,369.5 234.096,373.147 234.295,373.554 234.701,377.899 235.204,381.844 235.101,383.968 234.295,385.994 
	233.078,388.731 228.633,394.294 227.01,395.915 225.796,397.132 224.381,397.427 224.076,400.067 225.617,402.636 224.272,400.768 
	225.617,402.636 "/>
<path id="bto_0001374" fill="#808080" fill-opacity="0.5" stroke="#787878" stroke-width="0.5" d="M191.591,213.267l-0.4-0.211
	l-0.296-0.305l-0.407-0.405l-0.099-1.009l0.296-0.305l0.101-0.102l0.205-0.503l0.101-0.613l0.208-1.105l0.508-1.317l1.112-1.926
	l0.101-0.195v-1.018v-1.009v-1.521l-0.101-0.506l-0.402-1.216l-1.218-3.24l-1.422-1.203l-5.157-2.027l-0.504-0.21l-1.219-0.604
	l0.201-0.502l0.108-0.107l0.908-0.603h0.402h0.405l0.503-0.097l0.31-0.212l0.503-0.193h0.502l2.027,0.097l1.315,0.097l1.313-0.193
	l0.31,0.097l0.303,0.097l1.105,0.11h1.021l1.214,0.198l0.602,0.195l0.604,0.21l0.713,0.907l0.71,0.503l1.009,0.812l0.503,0.208
	l1.119,0.604l0.198,0.208l0.305,1.217l0.103,0.503l0.4,1.108l0.405,0.808l1.021,2.335l-0.204,1.719l-1.317,1.819l-0.305,0.305
	l-0.103,0.406v1.115v0.704l-0.098,0.908v0.305l-0.208,0.714l-2.014,2.125l-0.715,0.193h-0.306l-0.603,0.409l-0.506,0.305
	l-0.405,0.405l-0.613,0.405h-0.297l-0.404,0.097l-0.305,0.102v0.109l-0.211,0.097l-1.61,0.099l-1.112-0.195L191.591,213.267
	L191.591,213.267z M182.896,217.612l0.407,0.406l-1.933-2.125l-1.104-1.216l-2.233-1.622l-0.296-0.71l-0.307-0.6l0.196-1.823
	l-0.502-0.809l-1.119-1.722l-0.801,0.201L175,204.659l-0.31-5.261v0.506l3.647-3.538l2.027-4.051l1.317-0.405l0.707-0.309h1.416
	l2.528,0.309l4.854,2.935l1.015,1.411l1.109,1.523l1.424,4.654v2.124v1.216l-0.405,1.313l-0.813,1.523l-1.412,2.725v0.911v1.521
	v1.313l-3.546,1.313l-0.908,1.119h-0.405l-0.604,0.405l-1.426-0.11L182.896,217.612z"/>
<path id="bto_0001253" fill="#808080" fill-opacity="0.5" stroke="#787878" stroke-width="0.5" d="M50.305,504.001l-16.292,19.378
	l-8.192,28.631l5.7,20.296c2.58-1.382,5.171-2.75,7.764-4.115l-0.259-0.651l-0.718-5.64l-0.101-8.371l-0.097-13.716l1.831-7.256
	l7.48-14.014l5.526-10.596l5.118-5.642l12.181-9.372l14.438-10.987l6.047-6.767l3.777-9.165l4.305-10.291l0.512-6.755l-1.646-19.456
	l-0.708-9.078l-0.655-7.656c-1.359-1.277-2.713-2.568-4.046-3.879l0.506,6.091l-0.216,6.056l-5.108,20.862l-5.937,24.51
	l-0.726,1.104l-25.587,30.65L50.305,504.001"/>
<polygon id="bto_0001103" fill="#808080" fill-opacity="0.5" stroke="#787878" stroke-width="0.5" points="109.963,559.281 
	114.178,547.891 121.026,527.734 124.196,518.451 134.727,500.21 136.264,501.117 136.99,501.52 125.829,536.092 122.348,544.054 
	119.177,551.514 110.473,562.903 108.838,561.901 108.327,561.593 108.426,560.785 109.057,560.186 "/>
<polygon id="bto_0001284" fill="#808080" fill-opacity="0.5" stroke="#787878" stroke-width="0.5" points="131.714,489.984 
	132.007,490.39 132.116,491.794 132.322,494.416 132.834,494.92 135.698,495.023 140.099,495.225 142.865,499.96 140.001,502.383 
	138.062,504.095 135.698,504.296 133.238,502.882 130.382,501.273 129.046,501.872 125.876,506.112 120.246,513.77 114.723,527.177 
	111.543,540.682 110.417,545.623 104.582,555.298 105.203,565.979 105.509,571.226 98.864,574.15 94.759,571.729 93.333,570.921 
	89.75,567.491 88.52,567.386 86.677,567.386 86.069,567.091 84.631,564.976 83.301,563.053 83.095,562.247 83.606,560.637 
	84.532,557.919 87.495,555.801 90.873,555.594 92.418,555.495 94.041,555.091 94.759,554.49 95.478,553.881 97.121,550.148 
	98.547,546.122 101.411,538.064 103.569,533.319 106.325,529.696 108.689,526.567 110.518,520.021 111.442,511.952 112.577,501.776 
	113.589,498.448 116.247,496.432 117.588,495.523 119.939,494.216 121.681,493.609 123.632,492.908 124.743,492.198 
	124.851,491.696 124.851,490.284 128.435,488.976 130.275,489.577 "/>
<path id="bto_0000047" fill="#808080" fill-opacity="0.5" stroke="#787878" stroke-width="0.5" d="M226.684,500.99l-1.229-1.813
	l-1.23-1.614l-1.125-1.612l-1.023-1.913v-0.707v-0.71l-0.412-1.505l-0.613-1.112l-1.12-2.219l0.103-0.401l2.863-2.617l2.563-2.522
	l-0.917-0.903l-5.73-1.013l-4.207-0.7l-2.045-1.519v-2.424v-5.335l7.789,0.602l7.461,5.837l3.17,2.522l0.513,1.221l-1.221,1.203
	l-1.021,1.012v-0.203l1.828,7.268l1.035,4.33v0.402l-0.717,2.729l-1.333,4.331l-2.254,2.217l-0.917-2.217L226.684,500.99z
	 M172.623,504.318l-2.561-2.422l-1.225-2.617l-1.133-2.322l-2.767,0.313l-4.195,0.396l-1.22-0.604l1.73-3.323l0.931-1.92
	l1.336-1.411v-1.811v-2.117l0.201-0.711l1.119-1.209l2.769-2.824l3.18-0.7l2.442,1.712l1.753,1.112l1.028,1.716l0.397,2.423
	l0.214,1.104l0.514,1.213l0.397,0.598l0.41,0.514l0.407,2.104l0.217,2.029l0.196,2.009l1.945,1.716l0.406,1.515l0.413,1.407
	l-1.13,2.63l-0.201,0.396l-0.41,0.904h-2.757l-2.158-0.904L172.623,504.318z"/>
<path id="bto_0001379" fill="#808080" fill-opacity="0.5" stroke="#787878" stroke-width="0.5" d="M205.394,132.265l0.795-0.804
	v-1.005v-0.402l0.204-0.603l0.203-0.208l0.303-0.195l0.615-1.615l0.602-1.615l0.804-2.215l0.309-1.615v-2.729l0.099-2.007
	l0.198-2.229l0.105-0.804l0.295-1.508l-0.808-3.021l-1.002-1.322l-0.715-1.005l-1.211,0.405l-0.601,1.519l-0.398,0.804l-1.005,1.716
	l-0.906,1.2l-0.919,1.213l-1.21,2.017l-0.602,1.311l-0.602,1.21l-0.71,1.112l-0.206,0.097l-0.195,0.211l-0.71,1.408l-0.602,1.505
	l-0.806,2.021l-0.207,1.109l0.207,1.005l0.1,0.707l0.302,1.408l0.101,1.116l0.506,3.021l0.604,0.805h1.719l0.807-0.098l1.406-0.305
	l0.904-0.503L205.394,132.265z M187.942,132.265l-0.804-0.804v-1.005v-0.402l-0.103-0.603l-0.305-0.208l-0.194-0.195l-0.613-1.615
	l-0.598-1.615l-0.808-2.215l-0.305-1.615l-0.101-2.729v-2.007l-0.208-2.229l-0.191-0.804l-0.214-1.508l0.813-3.021l1.012-1.322
	l0.699-1.005l1.213,0.405l0.611,1.519l0.3,0.804l1.104,1.716l0.906,1.2l0.905,1.213l1.211,2.017l0.611,1.311l0.6,1.21l0.707,1.112
	l0.198,0.097l0.208,0.211l0.706,1.408l0.604,1.505l0.707,2.021l0.292,1.109l-0.19,1.005l-0.208,0.707l-0.198,1.408l-0.205,1.116
	l-0.396,3.021l-0.611,0.805h-1.813l-0.807-0.098l-1.416-0.305l-0.799-0.503L187.942,132.265z"/>
</svg>
